<svg width="130" height="96" viewBox="0 0 130 96" fill="none" xmlns="http://www.w3.org/2000/svg">
<g clip-path="url(#clip0_1_2)">
<path d="M108.047 0.530854C107.968 0.293979 107.779 0.116323 107.534 0.048644C107.443 0.0148047 107.352 0 107.258 0H92.6453C92.3351 0 92.027 0.158622 91.8209 0.425106C91.6361 0.664096 91.5724 0.949616 91.6425 1.20976L95.0886 10.4437L89.7452 16.4692C89.4924 16.7547 89.4201 17.1206 89.5582 17.4251C89.6793 17.6937 89.9492 17.8608 90.2636 17.8608H92.2225C92.8641 17.8608 93.5334 17.5393 94.0093 17L107.832 1.40856C108.064 1.14842 108.144 0.820603 108.047 0.530854ZM101.169 3.85134L98.2649 6.90533L96.7564 3.85134H101.169Z" fill="#930000"/>
<path d="M50.5357 30.062V24.9903C50.5357 24.6689 50.7291 24.2734 51.0286 23.9878L70.4453 5.42063C70.7215 5.15626 71.0275 5.19222 71.0275 5.49254V10.5642C71.0275 10.8857 70.8341 11.2812 70.5346 11.5667L51.1179 30.1339C50.8417 30.3983 50.5357 30.3623 50.5357 30.062Z" fill="#930000"/>
<path d="M128.734 39.3763H87.7375C86.7623 39.3763 86.1546 40.4232 86.639 41.2628L107.139 76.6058C107.624 77.4455 108.841 77.4455 109.328 76.6058L129.826 41.2628C130.312 40.4232 129.707 39.3763 128.732 39.3763H128.734ZM114.733 49.5746L108.739 59.9104C108.61 60.1303 108.291 60.1303 108.163 59.9104L102.172 49.5746C102.042 49.3546 102.202 49.0776 102.461 49.0776H114.448C114.703 49.0776 114.862 49.3546 114.737 49.5746H114.733Z" fill="#161614"/>
<path d="M42.2625 39.3763H1.26626C0.29107 39.3763 -0.316565 40.4232 0.172093 41.2628L20.6702 76.6058C21.1568 77.4455 22.372 77.4455 22.8586 76.6058L43.3567 41.2628C43.8432 40.4232 43.2377 39.3763 42.2625 39.3763ZM28.0468 49.5746L22.0533 59.9104C21.9237 60.1303 21.6051 60.1303 21.4776 59.9104L15.4862 49.5746C15.3566 49.3546 15.516 49.0776 15.7752 49.0776H27.7579C28.015 49.0776 28.1743 49.3546 28.049 49.5746H28.0468Z" fill="#161614"/>
<path d="M77.0953 39.3001C76.6088 38.4605 75.3914 38.4605 74.907 39.3001L54.4067 74.6432C53.9223 75.4828 54.53 76.5297 55.5009 76.5297H96.4993C97.4724 76.5297 98.0821 75.4828 97.5935 74.6432L77.0953 39.3001ZM81.9904 66.8284H70.0034C69.7485 66.8284 69.587 66.5513 69.7145 66.3314L75.708 55.9998C75.8333 55.7778 76.1563 55.7778 76.2837 55.9998L82.2751 66.3314C82.4047 66.5513 82.2454 66.8284 81.9862 66.8284H81.9904Z" fill="#161614"/>
<path d="M102.308 34.2475C102.661 34.5986 103.23 34.5986 103.583 34.2475L107.598 30.2502C107.951 29.8991 108.52 29.8991 108.873 30.2502L112.888 34.2475C113.241 34.5986 113.811 34.5986 114.163 34.2475L120.771 27.67C121.123 27.3189 121.123 26.7521 120.771 26.401L114.163 19.8235C113.811 19.4724 113.241 19.4724 112.888 19.8235L108.873 23.8208C108.52 24.1718 107.951 24.1718 107.598 23.8208L103.583 19.8235C103.23 19.4724 102.661 19.4724 102.308 19.8235L95.7005 26.401C95.3478 26.7521 95.3478 27.3189 95.7005 27.67L102.308 34.2475Z" fill="#161614"/>
<path d="M15.8389 34.2475C16.1916 34.5986 16.761 34.5986 17.1137 34.2475L21.1291 30.2502C21.4818 29.8991 22.0512 29.8991 22.4039 30.2502L26.4194 34.2475C26.7721 34.5986 27.3415 34.5986 27.6942 34.2475L34.3017 27.67C34.6543 27.3189 34.6543 26.7521 34.3017 26.401L27.6942 19.8235C27.3415 19.4724 26.7721 19.4724 26.4194 19.8235L22.4039 23.8208C22.0512 24.1718 21.4818 24.1718 21.1291 23.8208L17.1137 19.8235C16.761 19.4724 16.1916 19.4724 15.8389 19.8235L9.23138 26.401C8.8787 26.7521 8.8787 27.3189 9.23138 27.67L15.8389 34.2475Z" fill="#161614"/>
<path d="M64.1714 39.0717H57.3876C55.8727 39.0717 54.4726 39.8754 53.7141 41.1824L26.634 87.8659C26.1474 88.7055 26.7551 89.7545 27.7281 89.7545H34.512C36.0268 89.7545 37.4269 88.9508 38.1854 87.6438L65.2656 40.9604C65.7521 40.1207 65.1445 39.0717 64.1714 39.0717Z" fill="#161614"/>
<path d="M62.7819 95.1202C62.7224 95.3169 62.595 95.4691 62.408 95.5664L61.7664 95.9091C61.5369 96.0338 61.3351 96.0106 61.2055 95.9725C61.061 95.9281 60.9399 95.8371 60.857 95.7145L60.8103 95.6278C60.8018 95.613 60.7975 95.5982 60.789 95.5791L60.2855 94.6422C60.2855 94.6422 60.2834 94.6422 60.2813 94.6422L59.253 92.7303C59.253 92.7303 59.2572 92.7303 59.2593 92.7303L58.8748 92.0027C58.7813 91.8505 58.7558 91.6601 58.811 91.4782C58.8663 91.2942 58.9853 91.1483 59.1574 91.0573L59.8032 90.7168C59.9732 90.6238 60.1644 90.6047 60.3492 90.6619C60.5808 90.7316 60.6998 90.8755 60.7635 90.9875L61.1608 91.7236L62.1892 93.6355L62.7586 94.6972C62.8265 94.8748 62.8095 95.0229 62.7798 95.1223L62.7819 95.1202Z" fill="#930000"/>
<path d="M78.9098 83.1178C78.8375 82.9296 78.7292 82.7984 78.5783 82.7223C78.4721 82.6694 78.3467 82.6441 78.1959 82.6441H77.737C77.584 82.6441 77.4587 82.6694 77.3503 82.7244C77.2164 82.7921 77.1123 82.9063 77.0231 83.0861L76.0713 85.3723L75.1237 83.0945C75.0897 83.0184 74.9877 82.7879 74.7413 82.6948C74.6457 82.661 74.5394 82.6441 74.4056 82.6441H73.9467C73.6259 82.6441 73.3667 82.8048 73.2371 83.0903L69.1748 92.8212C69.1196 92.9206 69.0941 93.0327 69.0941 93.166C69.0941 93.4811 69.3193 93.8216 69.8101 93.8216H70.5431C70.7045 93.8216 70.849 93.7814 70.9701 93.6989C71.0806 93.6249 71.172 93.5213 71.2463 93.3796C71.2952 93.2886 71.3441 93.1765 71.3929 93.0454C71.4354 92.9354 71.4928 92.7937 71.5693 92.614L74.1825 86.2162C74.2463 86.3748 74.3079 86.5313 74.3716 86.6857C74.5586 87.1468 74.7498 87.61 74.9431 88.0753L72.9269 92.8847C72.8886 92.9925 72.8716 93.0814 72.8716 93.166C72.8716 93.4811 73.0968 93.8216 73.5876 93.8216H74.3206C74.4736 93.8216 74.6138 93.7856 74.7349 93.7116C74.8645 93.6355 74.9686 93.5149 75.043 93.3584C75.0812 93.2781 75.1237 93.1744 75.1726 93.0433C75.213 92.9333 75.2703 92.7916 75.3468 92.6118L77.9686 86.2035L80.5839 92.597C80.7242 92.9756 80.8219 93.2273 80.8856 93.3605C81.0195 93.6482 81.2914 93.8195 81.6165 93.8195H82.3495C82.8318 93.8195 83.0506 93.479 83.0506 93.1638C83.0506 93.0814 83.0336 92.9925 82.9932 92.8762L78.9119 83.1157L78.9098 83.1178Z" fill="#930000"/>
<path d="M87.0363 94.7056C87.0363 95.1096 87.3253 95.3909 87.7396 95.3909H88.4874C88.8932 95.3909 89.1758 95.1096 89.1758 94.7056V91.5861H87.0385V94.7056H87.0363Z" fill="#930000"/>
<path d="M92.9576 90.7676L90.8819 91.5882L92.9215 94.9679C92.981 95.0567 93.0511 95.1371 93.1276 95.2069C93.2635 95.3274 93.4356 95.3909 93.629 95.3909H94.7062C95.1821 95.3909 95.3074 95.0546 95.3074 94.877C95.3074 94.7543 95.2628 94.6485 95.2076 94.5407L92.9534 90.7655L92.9576 90.7676Z" fill="#930000"/>
<path d="M112.07 93.0073C112.056 92.9481 112.032 92.8847 111.99 92.7958C111.739 92.3031 111.469 91.7912 111.191 91.2752C110.949 90.8184 110.675 90.3002 110.371 89.7207C110.067 89.1412 109.759 88.549 109.444 87.9357C108.695 86.5081 107.849 84.8901 106.889 83.0565C106.806 82.919 106.723 82.8238 106.629 82.7604C106.508 82.6779 106.362 82.6419 106.139 82.6419H106.086C105.741 82.6419 105.465 82.7963 105.306 83.0776L100.171 92.7535C100.098 92.8593 100.064 92.9883 100.064 93.1342C100.064 93.4494 100.275 93.8195 100.865 93.8195H111.327C111.892 93.8195 112.094 93.4747 112.094 93.1786C112.094 93.1237 112.087 93.0666 112.073 93.0052L112.07 93.0073ZM103.069 91.9139L106.103 86.0385L109.122 91.9139H103.066H103.069Z" fill="#930000"/>
<path d="M65.665 92.9798C65.6501 92.9206 65.6268 92.8572 65.5843 92.7683C65.3336 92.2756 65.0637 91.7637 64.7854 91.2477C64.5432 90.7909 64.2691 90.2727 63.9653 89.6932C63.6615 89.1137 63.3534 88.5215 63.039 87.9082C62.289 86.4806 61.4434 84.8626 60.4831 83.029C60.4002 82.8915 60.3174 82.7963 60.2239 82.7329C60.1028 82.6504 59.9562 82.6144 59.7331 82.6144H59.68C59.3358 82.6144 59.0596 82.7688 58.9003 83.0501L53.7651 92.726C53.6929 92.8318 53.6589 92.9608 53.6589 93.1067C53.6589 93.4219 53.8692 93.792 54.4599 93.792H64.9214C65.4865 93.792 65.6884 93.4473 65.6884 93.1512C65.6884 93.0962 65.682 93.0391 65.6671 92.9777L65.665 92.9798ZM56.6631 91.8843L59.697 86.009L62.7161 91.8843H56.6609H56.6631Z" fill="#930000"/>
<path d="M88.3132 93.7137C88.0923 93.7137 87.8713 93.6566 87.6716 93.5445C87.2764 93.3182 87.03 92.8931 87.03 92.4384V82.9486C87.03 82.4939 87.2764 82.0709 87.6695 81.8425C88.0647 81.6141 88.5554 81.6162 88.9506 81.8425L97.2068 86.5884C97.602 86.8169 97.8484 87.2399 97.8484 87.6946C97.8484 88.1493 97.602 88.5723 97.2068 88.8007L88.9527 93.5445C88.7551 93.6587 88.5342 93.7158 88.3111 93.7158L88.3132 93.7137ZM89.1779 84.4396V90.9495L94.84 87.6946L89.1779 84.4396Z" fill="#930000"/>
</g>
<defs>
<clipPath id="clip0_1_2">
<rect width="130" height="96" fill="white"/>
</clipPath>
</defs>
</svg>
