<svg width="40" height="53" viewBox="0 0 40 53" fill="none" xmlns="http://www.w3.org/2000/svg">
<g clip-path="url(#clip0_1_43)">
<path d="M38.8364 18.2089H1.16549C0.269401 18.2089 -0.288948 19.171 0.156169 19.9425L18.9936 52.4208C19.4387 53.1924 20.5574 53.1924 21.0044 52.4208L39.8399 19.9425C40.287 19.171 39.7306 18.2089 38.8345 18.2089H38.8364ZM25.971 27.5806L20.4637 37.0786C20.3446 37.2807 20.0517 37.2807 19.9346 37.0786L14.4292 27.5806C14.3101 27.3785 14.4565 27.1239 14.6947 27.1239H25.7094C25.9437 27.1239 26.0901 27.3785 25.9749 27.5806H25.971Z" fill="#161614"/>
<path d="M14.5541 13.4978C14.8782 13.8204 15.4014 13.8204 15.7255 13.4978L19.4153 9.82453C19.7394 9.50191 20.2626 9.50191 20.5866 9.82453L24.2764 13.4978C24.6005 13.8204 25.1237 13.8204 25.4478 13.4978L31.5193 7.45343C31.8434 7.1308 31.8434 6.60994 31.5193 6.28731L25.4458 0.240998C25.1218 -0.0816272 24.5986 -0.0816272 24.2745 0.240998L20.5847 3.91427C20.2606 4.23689 19.7374 4.23689 19.4133 3.91427L15.7255 0.240998C15.4014 -0.0816272 14.8782 -0.0816272 14.5541 0.240998L8.48259 6.28537C8.15851 6.608 8.15851 7.12886 8.48259 7.45149L14.5541 13.4959V13.4978Z" fill="#161614"/>
</g>
<defs>
<clipPath id="clip0_1_43">
<rect width="40" height="53" fill="white"/>
</clipPath>
</defs>
</svg>
