<svg width="186" height="138" viewBox="0 0 186 138" fill="none" xmlns="http://www.w3.org/2000/svg">
<g clip-path="url(#clip0_1_22)">
<path d="M154.591 0.763407C154.48 0.422119 154.208 0.16765 153.858 0.07185C153.729 0.02395 153.597 0 153.462 0H132.557C132.111 0 131.671 0.227525 131.378 0.610725C131.114 0.955007 131.021 1.36515 131.12 1.73638L136.05 15.0107L128.405 23.6716C128.043 24.0817 127.941 24.6086 128.139 25.0457C128.312 25.4319 128.699 25.6714 129.148 25.6714H131.949C132.868 25.6714 133.823 25.2104 134.506 24.435L154.283 2.02378C154.612 1.64956 154.729 1.17654 154.591 0.760413V0.763407ZM144.752 5.53545L140.597 9.92728L138.439 5.53545H144.752Z" fill="#930000"/>
<path d="M72.3041 43.2118V35.922C72.3041 35.461 72.5825 34.8922 73.0075 34.482L100.789 7.79274C101.184 7.41253 101.621 7.46642 101.621 7.89453V15.1843C101.621 15.6454 101.342 16.2142 100.917 16.6243L73.1362 43.3136C72.7411 43.6938 72.3041 43.6399 72.3041 43.2118Z" fill="#930000"/>
<path d="M184.189 56.6029H125.535C124.14 56.6029 123.272 58.1087 123.963 59.3152L153.295 110.122C153.989 111.329 155.728 111.329 156.426 110.122L185.755 59.3152C186.452 58.1087 185.584 56.6029 184.189 56.6029ZM164.158 71.2633L155.582 86.1213C155.396 86.4386 154.941 86.4386 154.756 86.1213L146.183 71.2633C145.997 70.9459 146.228 70.5478 146.596 70.5478H163.745C164.11 70.5478 164.337 70.9459 164.158 71.2633Z" fill="#BABABA"/>
<path d="M60.4684 56.6029H1.81097C0.416075 56.6029 -0.451993 58.1087 0.245455 59.3152L29.5742 110.122C30.2716 111.329 32.0078 111.329 32.7052 110.122L62.0339 59.3152C62.7314 58.1087 61.8633 56.6029 60.4684 56.6029ZM40.1287 71.2633L31.5528 86.1213C31.3672 86.4386 30.9122 86.4386 30.7266 86.1213L22.1537 71.2633C21.9681 70.9459 22.1986 70.5478 22.5668 70.5478H39.7126C40.0808 70.5478 40.3083 70.9459 40.1287 71.2633Z" fill="#BABABA"/>
<path d="M110.305 56.4921C109.607 55.2856 107.865 55.2856 107.173 56.4921L77.8418 107.296C77.1473 108.503 78.0184 110.008 79.4073 110.008H138.068C139.46 110.008 140.331 108.503 139.633 107.296L110.305 56.4921ZM117.312 96.0665H100.163C99.7979 96.0665 99.5674 95.6684 99.75 95.351L108.326 80.499C108.506 80.1787 108.966 80.1787 109.152 80.499L117.725 95.351C117.911 95.6684 117.68 96.0665 117.312 96.0665Z" fill="#BABABA"/>
<path d="M146.38 49.2323C146.883 49.7352 147.7 49.7352 148.203 49.2323L153.947 43.4872C154.45 42.9843 155.267 42.9843 155.77 43.4872L161.514 49.2323C162.017 49.7352 162.835 49.7352 163.337 49.2323L172.793 39.775C173.296 39.272 173.296 38.4547 172.793 37.9518L163.337 28.4945C162.835 27.9916 162.017 27.9916 161.514 28.4945L155.77 34.2395C155.267 34.7425 154.45 34.7425 153.947 34.2395L148.203 28.4945C147.7 27.9916 146.883 27.9916 146.38 28.4945L136.924 37.9518C136.421 38.4547 136.421 39.272 136.924 39.775L146.38 49.2323Z" fill="#BABABA"/>
<path d="M22.6596 49.2323C23.1624 49.7352 23.9796 49.7352 24.4825 49.2323L30.2267 43.4872C30.7296 42.9843 31.5468 42.9843 32.0497 43.4872L37.7939 49.2323C38.2968 49.7352 39.1139 49.7352 39.6168 49.2323L49.0728 39.775C49.5756 39.272 49.5756 38.4547 49.0728 37.9518L39.6168 28.4945C39.1139 27.9916 38.2968 27.9916 37.7939 28.4945L32.0497 34.2395C31.5468 34.7425 30.7296 34.7425 30.2267 34.2395L24.4825 28.4945C23.9796 27.9916 23.1624 27.9916 22.6596 28.4945L13.2036 37.9518C12.7007 38.4547 12.7007 39.272 13.2036 39.775L22.6596 49.2323Z" fill="#BABABA"/>
<path d="M91.8147 56.1658H82.1102C79.9431 56.1658 77.9375 57.3214 76.8539 59.2015L38.1082 126.309C37.4107 127.516 38.2818 129.022 39.6737 129.022H49.3781C51.5453 129.022 53.5508 127.866 54.6344 125.986L93.3802 58.8781C94.0776 57.6716 93.2066 56.1658 91.8147 56.1658Z" fill="#BABABA"/>
<path d="M89.8271 136.734C89.7403 137.015 89.5607 137.234 89.2943 137.374L88.3753 137.865C88.046 138.045 87.7587 138.012 87.5731 137.955C87.3665 137.892 87.1929 137.761 87.0762 137.584L87.0103 137.458C86.9984 137.437 86.9924 137.416 86.9804 137.389L86.262 136.042C86.262 136.042 86.259 136.042 86.256 136.042L84.7833 133.294C84.7833 133.294 84.7893 133.294 84.7923 133.294L84.2445 132.246C84.1098 132.027 84.0739 131.755 84.1517 131.495C84.2325 131.231 84.4002 131.022 84.6486 130.89L85.5735 130.399C85.816 130.267 86.0884 130.24 86.3548 130.318C86.6871 130.42 86.8577 130.626 86.9475 130.785L87.5162 131.842L88.9889 134.59L89.8061 136.117C89.9019 136.371 89.8809 136.584 89.836 136.728L89.8271 136.734Z" fill="#930000"/>
<path d="M112.903 119.481C112.801 119.208 112.645 119.023 112.427 118.912C112.274 118.837 112.098 118.801 111.882 118.801H111.223C111.005 118.801 110.825 118.84 110.67 118.918C110.478 119.014 110.328 119.181 110.2 119.439L108.838 122.726L107.482 119.451C107.434 119.343 107.287 119.011 106.934 118.876C106.799 118.825 106.647 118.801 106.452 118.801H105.794C105.333 118.801 104.964 119.035 104.779 119.445L98.9657 133.432C98.8879 133.572 98.849 133.734 98.849 133.926C98.849 134.381 99.1693 134.869 99.8757 134.869H100.923C101.154 134.869 101.36 134.809 101.534 134.695C101.693 134.59 101.821 134.437 101.929 134.234C101.998 134.102 102.07 133.94 102.139 133.752C102.199 133.593 102.279 133.39 102.39 133.132L106.129 123.935C106.219 124.163 106.308 124.387 106.398 124.612C106.665 125.274 106.94 125.941 107.218 126.609L104.333 133.521C104.279 133.677 104.255 133.806 104.255 133.926C104.255 134.381 104.575 134.869 105.282 134.869H106.329C106.551 134.869 106.748 134.815 106.922 134.713C107.108 134.602 107.254 134.431 107.362 134.204C107.416 134.087 107.479 133.937 107.548 133.752C107.608 133.596 107.688 133.39 107.796 133.132L111.547 123.92L115.288 133.111C115.489 133.656 115.63 134.015 115.719 134.207C115.911 134.62 116.3 134.869 116.764 134.869H117.812C118.5 134.869 118.815 134.381 118.815 133.926C118.815 133.806 118.791 133.68 118.734 133.512L112.894 119.484L112.903 119.481Z" fill="#930000"/>
<path d="M124.529 136.138C124.529 136.719 124.942 137.123 125.535 137.123H126.603C127.184 137.123 127.588 136.719 127.588 136.138V131.656H124.529V136.138Z" fill="#930000"/>
<path d="M133.003 130.477L130.034 131.656L132.952 136.515C133.039 136.644 133.138 136.758 133.245 136.856C133.44 137.03 133.688 137.123 133.964 137.123H135.505C136.188 137.123 136.368 136.641 136.368 136.386C136.368 136.21 136.305 136.057 136.227 135.904L133.003 130.48V130.477Z" fill="#930000"/>
<path d="M160.347 133.698C160.326 133.611 160.293 133.524 160.23 133.393C159.871 132.683 159.488 131.95 159.087 131.207C158.74 130.552 158.351 129.806 157.914 128.971C157.476 128.139 157.036 127.285 156.59 126.405C155.519 124.351 154.307 122.025 152.936 119.391C152.816 119.193 152.699 119.059 152.564 118.963C152.391 118.843 152.181 118.795 151.861 118.795H151.786C151.292 118.795 150.897 119.017 150.67 119.421L143.324 133.33C143.222 133.482 143.171 133.668 143.171 133.878C143.171 134.333 143.471 134.863 144.318 134.863H159.287C160.099 134.863 160.383 134.366 160.383 133.94C160.383 133.863 160.374 133.779 160.353 133.692L160.347 133.698ZM147.467 132.126L151.807 123.681L156.126 132.126H147.464H147.467Z" fill="#930000"/>
<path d="M93.9519 133.656C93.9309 133.569 93.898 133.482 93.8352 133.351C93.476 132.641 93.0928 131.908 92.6917 131.165C92.3445 130.51 91.9553 129.764 91.5183 128.929C91.0813 128.097 90.6413 127.243 90.1953 126.363C89.1236 124.31 87.9113 121.983 86.5404 119.349C86.4207 119.151 86.3039 119.017 86.1692 118.921C85.9956 118.801 85.7861 118.753 85.4658 118.753H85.3909C84.897 118.753 84.5019 118.975 84.2744 119.379L76.9288 133.288C76.827 133.441 76.7761 133.626 76.7761 133.836C76.7761 134.291 77.0755 134.821 77.9226 134.821H92.8923C93.7034 134.821 93.9878 134.324 93.9878 133.899C93.9878 133.821 93.9788 133.737 93.9579 133.65L93.9519 133.656ZM81.0716 132.084L85.4119 123.639L89.7313 132.084H81.0686H81.0716Z" fill="#930000"/>
<path d="M126.355 134.716C126.037 134.716 125.72 134.635 125.439 134.47C124.873 134.144 124.52 133.536 124.52 132.881V119.238C124.52 118.586 124.87 117.975 125.436 117.648C126.002 117.322 126.705 117.322 127.271 117.648L139.082 124.468C139.648 124.795 140.001 125.405 139.998 126.058C139.998 126.711 139.645 127.321 139.079 127.648L127.271 134.467C126.989 134.632 126.672 134.713 126.355 134.713V134.716ZM127.594 121.382V130.737L135.697 126.058L127.594 121.379V121.382Z" fill="#930000"/>
</g>
<defs>
<clipPath id="clip0_1_22">
<rect width="186" height="138" fill="white"/>
</clipPath>
</defs>
</svg>
