<svg width="307" height="284" viewBox="0 0 307 284" fill="none" xmlns="http://www.w3.org/2000/svg">
<path d="M128.708 167.881L137.875 168.503C138.844 168.086 141.002 168.016 144.336 168.297C147.945 168.578 149.963 168.995 150.38 169.547C150.516 169.828 150.656 170.17 150.797 170.586C150.932 171.56 150.932 172.881 150.797 174.547C150.516 176.771 150.38 178.021 150.38 178.297C150.099 187.881 149.963 192.61 149.963 192.47C149.963 194.001 150.034 196.36 150.169 199.553C150.305 202.751 150.375 205.11 150.375 206.637C150.375 208.444 150.305 211.155 150.169 214.764C150.029 218.379 149.963 220.944 149.963 222.475C150.099 228.59 150.034 237.616 149.758 249.564C149.758 250.398 149.552 257.898 149.13 272.07C149.13 273.737 148.99 274.57 148.713 274.57V274.987C147.047 274.71 141.836 274.57 133.086 274.57C129.752 274.434 121.137 274.505 107.247 274.776C105.997 274.916 104.33 274.846 102.246 274.57H86.4127C81.2721 274.851 77.4517 274.987 74.9516 274.987H53.4902C52.0997 274.987 51.4069 274.851 51.4069 274.57H50.9902C50.7091 265.96 50.8496 241.994 51.4069 202.681V182.675C51.4069 176.425 51.683 172.569 52.2402 171.109C52.7924 169.653 54.7403 168.855 58.0737 168.714C56.2664 168.714 58.6259 168.784 65.1572 168.92C68.3501 169.06 73.0741 169.126 79.3242 169.126C80.7098 169.126 81.4076 169.407 81.4076 169.959H81.8243C80.9909 172.6 80.7098 176.35 80.9909 181.209C80.9909 186.49 80.8504 190.241 80.5742 192.459C80.2931 193.433 80.017 193.92 79.7409 193.92C80.1576 194.754 80.2931 196.004 80.1576 197.67V201.631C80.1576 205.246 80.017 217.33 79.7409 237.887V243.304H86.6186C88.0041 243.585 90.1628 243.861 93.0796 244.137C96.1318 244.002 100.856 243.861 107.252 243.721C108.361 243.861 110.098 244.002 112.463 244.137L116.007 245.182C116.007 244.213 116.142 243.721 116.424 243.721C116.283 238.721 116.494 231.637 117.046 222.465C117.739 212.882 118.09 205.798 118.09 201.21C118.09 200.376 118.16 199.197 118.296 197.665C118.432 196.139 118.502 195.03 118.502 194.332V180.16C118.502 179.467 118.256 178.217 117.774 176.41C117.287 174.608 117.046 173.282 117.046 172.449C117.046 171.48 117.252 170.647 117.674 169.949C117.95 169.532 119.616 169.186 122.674 168.905C126.007 168.629 128.02 168.282 128.718 167.866L128.708 167.881ZM52.0244 275.82H56.402V276.442C55.4281 276.307 53.9672 276.096 52.0244 275.82ZM54.9411 166.631H61.8188V167.047L53.9019 167.881C53.9019 167.604 54.0375 167.464 54.3186 167.464C54.3186 167.188 54.5294 167.047 54.9461 167.047V166.631H54.9411ZM60.7796 159.13C61.4724 159.547 61.8188 159.547 61.8188 159.13H62.6521C61.6782 160.104 60.5687 160.591 59.3187 160.591C59.0376 160.591 58.902 160.456 58.902 160.175H59.3187V159.758C59.5948 159.622 60.0818 159.411 60.7796 159.135V159.13ZM62.2354 166.631H65.1522V167.047L62.2354 166.631ZM78.9075 161.214H79.3242C79.3242 161.495 79.4598 161.63 79.7409 161.63C79.4598 161.912 79.1836 162.047 78.9075 162.047V161.214ZM82.6576 237.892C82.7932 238.45 82.8986 239.072 82.9689 239.77C83.0392 240.468 83.2801 240.809 83.6968 240.809V241.226C82.4468 241.226 81.8193 241.09 81.8193 240.809H81.4026C81.4026 239.84 81.5381 239.353 81.8193 239.353C81.9548 238.937 82.2359 238.45 82.6526 237.892H82.6576ZM82.6576 169.964C82.7932 170.245 83.004 170.727 83.2851 171.42H82.6576V172.042H82.241V171.003H81.8243C81.9598 170.727 82.2409 170.381 82.6576 169.964ZM82.241 229.559C82.9337 230.257 83.2851 230.879 83.2851 231.431H82.241V229.559ZM84.741 161.63H86.6186V162.047C86.2019 162.047 85.5744 161.912 84.741 161.63ZM87.6577 237.476H88.4911C88.9078 238.033 88.9078 238.309 88.4911 238.309V239.353H87.6577V237.476ZM100.369 169.131C101.062 169.828 101.413 170.451 101.413 171.008H100.369V169.131ZM104.325 235.392H105.158L104.325 235.809V235.392ZM110.997 204.553C111.273 205.944 111.413 206.918 111.413 207.47H110.997V204.553ZM124.747 157.253H125.164C126.273 157.951 129.747 158.297 135.581 158.297C136.273 157.745 137.664 157.328 139.747 157.047H145.998L150.998 157.253V159.13C150.3 159.13 149.19 158.995 147.664 158.714V159.13C147.383 159.547 145.581 159.753 142.247 159.753C139.747 159.753 134.813 159.617 127.453 159.336C121.203 159.06 117.518 158.99 116.408 159.13C114.461 159.271 113.492 159.13 113.492 158.714C113.627 158.438 113.979 158.161 114.536 157.88C116.338 157.88 119.049 158.021 122.664 158.297C123.216 158.161 123.914 158.021 124.747 157.88V157.253ZM113.913 169.547H114.541C115.234 170.381 115.58 171.003 115.58 171.42C114.466 172.253 113.913 173.227 113.913 174.337H113.497L113.913 169.542V169.547ZM113.913 176.842C114.049 177.539 114.26 178.508 114.541 179.758H113.913V176.842ZM121.414 161.214H139.752V162.047C132.804 163.021 126.695 162.745 121.414 161.214ZM146.836 276.442C148.086 276.583 148.713 276.929 148.713 277.482H148.091C147.534 277.065 147.117 276.719 146.841 276.442H146.836Z" fill="#3D2046"/>
<path d="M160.17 217.475C160.586 218.866 160.586 219.559 160.17 219.559V217.475ZM161.63 222.892L161.003 225.809H160.586C160.727 224.84 161.073 223.866 161.63 222.892ZM160.586 263.315C161.284 264.846 161.63 268.455 161.63 274.148H160.586V263.315ZM262.065 237.686C261.783 233.66 261.859 229.699 262.27 225.809H261.648V226.853C261.231 226.853 261.091 226.09 261.231 224.559C261.367 223.449 261.578 222.475 261.854 221.642C261.989 214.418 261.989 205.462 261.854 194.764C261.713 178.373 261.648 169.623 261.648 168.508H261.231C261.231 168.091 260.604 167.886 259.354 167.886C256.572 167.886 253.104 167.815 248.937 167.68C243.656 167.263 240.392 167.057 239.142 167.057C235.809 167.198 230.874 167.198 224.348 167.057C206.009 166.641 194.201 166.505 188.925 166.641C187.811 166.641 185.451 166.57 181.842 166.435C177.951 166.299 175.105 166.224 173.297 166.224C168.573 166.224 165.446 166.641 163.92 167.474V167.891H163.503C163.503 167.615 163.016 167.198 162.047 166.641C161.912 169.141 161.771 171.922 161.63 174.974C162.188 174.974 162.67 174.141 163.086 172.474H163.92C163.92 174.557 163.779 177.615 163.503 181.641C163.779 186.782 163.92 194.352 163.92 204.352C163.92 204.493 163.779 206.3 163.503 209.769C163.643 210.743 163.779 212.375 163.92 214.664C164.055 216.953 164.125 218.725 164.125 219.975L163.503 225.809C163.503 227.757 163.709 231.642 164.125 237.476C164.261 242.34 164.331 246.161 164.331 248.937C164.331 252.687 164.261 258.244 164.125 265.604C163.985 266.854 163.844 268.104 163.709 269.354C163.573 270.885 163.644 272.06 163.915 272.898V274.148H164.959V269.981H165.581C165.581 270.815 165.717 271.995 165.998 273.526H166.415C166.415 273.942 169.402 274.148 175.376 274.148C175.376 274.705 174.055 274.982 171.415 274.982H166.415C166.415 275.539 168.774 275.885 173.498 276.026C178.082 276.166 180.998 275.955 182.248 275.403H183.082V274.987H178.704V274.153H196.832C196.832 270.268 196.762 264.499 196.626 256.859C196.486 249.218 196.42 243.455 196.42 239.564L203.298 240.397C204.267 240.262 205.728 240.051 207.676 239.775C211.978 239.775 218.369 239.705 226.848 239.569C228.233 239.293 230.528 239.017 233.726 238.736C238.585 238.6 247.27 238.736 259.77 239.152L260.187 229.986H261.231C261.091 231.933 260.885 234.986 260.604 239.152H261.648V238.736C262.065 238.736 262.2 238.389 262.065 237.692V237.686ZM162.047 216.225C163.021 219.423 163.021 221.019 162.047 221.019V220.392H161.63C161.63 220.116 161.771 219.975 162.047 219.975V216.225ZM162.047 200.386C162.188 201.501 162.393 202.47 162.67 203.303H162.047V200.386ZM162.047 211.22C162.464 212.47 162.464 213.098 162.047 213.098V211.22ZM162.67 274.982H164.964V275.398H164.547C163.849 276.096 163.503 276.648 163.503 277.065C163.227 276.648 162.951 276.442 162.67 276.442V274.982ZM162.67 282.903L196.009 283.32V283.737L166.003 283.943L162.67 283.32V282.903ZM168.508 162.67H170.381V163.714L167.675 163.297C167.81 163.021 168.091 162.815 168.508 162.675V162.67ZM176.425 274.148V274.565C176.561 274.289 176.842 274.219 177.258 274.359C177.258 274.224 176.977 274.153 176.425 274.153V274.148ZM186.636 274.982C188.162 274.982 188.93 275.122 188.93 275.398C188.514 275.398 187.751 275.263 186.636 274.982ZM189.553 274.982C191.219 274.982 192.053 275.122 192.053 275.398C191.496 275.398 190.662 275.263 189.553 274.982ZM233.103 200.803C233.103 203.444 232.686 205.251 231.853 206.22C232.129 207.053 232.405 207.887 232.686 208.72C233.103 210.668 232.822 212.611 231.853 214.553V215.176C231.02 215.176 229.905 214.935 228.52 214.448C227.129 213.961 226.09 213.72 225.392 213.72C224.694 213.72 224.072 213.861 223.514 214.137C221.29 214.137 218.931 213.79 216.431 213.098C216.431 213.514 215.668 213.72 214.137 213.72C213.022 213.72 210.733 213.585 207.259 213.303C204.342 213.027 202.676 212.957 202.259 213.098H201.842C201.842 212.962 201.22 213.098 199.965 213.514C198.715 213.931 197.811 214.277 197.254 214.558H196.837C196.837 213.725 196.697 211.883 196.42 209.036C196.139 206.19 196.004 204.001 196.004 202.475C196.004 198.725 196.837 196.225 198.504 194.975V194.558C198.639 194.558 198.434 194.071 197.881 193.097C200.798 194.904 204.408 195.949 208.715 196.225C209.684 195.949 211.145 195.743 213.092 195.602C215.035 195.467 218.509 195.537 223.509 195.808C228.926 196.089 231.913 196.506 232.47 197.058C233.023 197.615 233.234 198.865 233.093 200.808L233.103 200.803ZM197.886 272.065C198.022 272.346 198.233 272.828 198.509 273.526H198.925V274.148H197.886V272.065ZM198.925 202.47C199.894 202.61 200.728 202.751 201.426 202.886V203.303C201.285 203.303 200.903 203.549 200.281 204.031C199.658 204.518 199.342 204.623 199.342 204.342C199.202 203.926 199.061 203.303 198.925 202.47ZM198.925 207.264C199.202 207.405 199.689 207.61 200.381 207.887H199.759C199.478 208.168 199.342 208.444 199.342 208.72C199.202 208.444 199.061 207.957 198.925 207.259V207.264ZM198.925 283.32H200.803V283.737L198.925 283.32ZM200.803 271.026C201.079 271.723 201.426 272.763 201.842 274.153H200.803V271.026ZM201.431 196.43H203.303V197.053C202.886 196.917 202.264 196.707 201.431 196.43ZM203.303 163.714H208.097V164.131C206.983 163.995 205.386 163.854 203.303 163.714ZM205.803 209.137H206.847C206.29 209.553 205.944 209.759 205.803 209.759V209.137ZM207.264 256.231H208.097C207.816 256.929 207.54 257.275 207.264 257.275V256.231ZM211.637 267.065C211.913 267.622 212.053 267.828 212.053 267.687L211.637 267.065ZM212.053 269.148H213.098C212.816 269.705 212.47 269.981 212.053 269.981V269.148ZM212.681 272.065H213.514C213.233 272.622 212.957 272.898 212.681 272.898V272.065ZM212.681 283.32H213.514C212.957 283.456 212.681 283.456 212.681 283.32ZM223.514 251.437C224.207 251.577 224.975 251.783 225.809 252.059V252.476C225.251 252.34 224.488 251.989 223.514 251.437ZM228.931 198.926H229.348C229.9 199.899 230.181 200.522 230.181 200.803H229.765V201.426H229.348C229.207 200.873 229.067 200.04 228.931 198.926ZM237.27 263.731C237.963 264.705 238.103 265.187 237.686 265.187V266.226H236.226V265.604H235.603V265.187L237.27 263.731ZM237.27 272.065C237.546 272.482 237.686 272.622 237.686 272.482C237.546 272.482 237.405 272.346 237.27 272.065ZM247.898 240.603L257.692 241.226C258.244 241.09 258.942 240.879 259.775 240.603V241.647C249.635 241.647 244.424 241.512 244.147 241.231C244.84 241.512 246.09 241.301 247.898 240.608V240.603ZM260.604 253.314C261.713 253.872 262.27 254.429 262.27 254.981H261.648V255.398H261.231C261.091 254.981 260.885 254.288 260.604 253.314ZM264.775 167.464C266.161 168.162 266.859 169.618 266.859 171.842C266.859 172.258 266.789 172.469 266.648 172.469C266.367 173.167 266.025 174.276 265.609 175.802H264.775C264.494 172.193 264.494 169.412 264.775 167.469V167.464ZM268.109 203.303C268.244 204.694 268.109 205.387 267.692 205.387C267.692 204.97 267.828 204.764 268.109 204.764V203.308V203.303Z" fill="#3D2046"/>
<path d="M125.118 17.5757L134.29 17.0386C135.199 16.5014 137.328 16.1651 140.671 16.0195C144.291 15.8438 146.339 15.9994 146.821 16.4964C146.992 16.7574 147.172 17.0838 147.368 17.4804C147.624 18.4292 147.795 19.7344 147.87 21.4061C147.87 23.6502 147.895 24.9052 147.93 25.1813C148.864 34.7247 149.321 39.4287 149.306 39.2881C149.497 40.8042 149.863 43.1386 150.405 46.2913C150.942 49.444 151.314 51.7784 151.505 53.2945C151.731 55.0867 152.002 57.7825 152.323 61.382C152.639 64.9865 152.895 67.5418 153.091 69.0579C154 75.1073 155.069 84.0683 156.299 95.9562C156.404 96.7845 157.142 104.25 158.518 118.356C158.729 120.013 158.694 120.856 158.423 120.892L158.473 121.303C156.786 121.238 151.6 121.755 142.915 122.859C139.592 123.146 131.052 124.3 117.312 126.328C116.087 126.625 114.425 126.765 112.322 126.75C110.118 127.031 108.532 127.232 107.568 127.353C104.947 127.684 101.293 128.151 96.6138 128.743C91.5484 129.672 87.7782 130.289 85.2983 130.601L64.0076 133.306C62.627 133.482 61.9242 133.432 61.8891 133.156L61.4774 133.206C60.1119 124.697 57.2303 100.911 52.8226 61.8389C52.421 58.6711 51.5776 52.0545 50.2974 41.994C49.5092 35.7941 49.2984 31.9335 49.6649 30.4174C50.0313 28.9013 51.8587 27.8621 55.1519 27.3049C53.3597 27.5308 55.7092 27.3049 62.2053 26.6171C65.3932 26.3561 70.087 25.8239 76.287 25.0358C77.6625 24.8601 78.3905 25.0508 78.4607 25.598L78.8724 25.5478C78.3804 28.2738 78.5762 32.0289 79.4648 36.8132C80.1325 42.0542 80.4638 45.7893 80.4688 48.0283C80.3132 49.0273 80.1024 49.5444 79.8262 49.5795C80.3483 50.3526 80.6395 51.5776 80.7148 53.2493L81.2118 57.1751C81.6686 60.7595 83.0542 72.7678 85.3736 93.195L85.9258 97.5325L86.0563 98.5667C86.3324 98.5315 88.6066 98.2403 92.8788 97.6982C94.2894 97.8036 96.4632 97.8036 99.39 97.7132C102.402 97.1911 107.071 96.4582 113.391 95.5144C114.511 95.5144 116.248 95.4341 118.612 95.2684L122.257 95.8558C122.136 94.8919 122.207 94.3949 122.488 94.3547C121.72 89.4098 121.032 82.3564 120.425 73.1895C119.903 63.5959 119.355 56.5225 118.778 51.9742C118.673 51.1458 118.592 49.9711 118.537 48.4349C118.482 46.9038 118.412 45.7943 118.321 45.1015C117.814 41.1054 117.217 36.4216 116.534 31.0449C116.444 30.3572 116.047 29.1473 115.339 27.4153C114.626 25.6884 114.22 24.4082 114.114 23.5799C113.994 22.616 114.094 21.7626 114.42 21.0196C114.641 20.5728 116.253 20.0206 119.25 19.3529C122.523 18.6601 124.476 18.0577 125.113 17.5557L125.118 17.5757ZM51.7834 25.6382L58.6058 24.7697L58.656 25.1813L50.9049 27.0087C50.8697 26.7326 50.9902 26.577 51.2663 26.5418C51.2312 26.2657 51.4219 26.1 51.8336 26.0498L51.7834 25.6382ZM56.6279 17.4653C57.3658 17.7916 57.7122 17.7464 57.662 17.3348L58.4904 17.2293C57.647 18.3187 56.6078 18.9412 55.3678 19.0969C55.0917 19.132 54.9361 19.0115 54.9009 18.7354L55.3126 18.6852L55.2624 18.2735C55.5184 18.1029 55.9753 17.8368 56.6329 17.4703L56.6279 17.4653ZM59.0175 24.7195L61.9091 24.353L61.9593 24.7647L59.0125 24.7195H59.0175ZM62.6622 134.326L67.0046 133.773L67.085 134.391C66.101 134.381 64.6301 134.356 62.6672 134.321L62.6622 134.326ZM74.8713 17.2444L75.2829 17.1942C75.3181 17.4703 75.4687 17.5908 75.7498 17.5557C75.5089 17.8669 75.2478 18.0376 74.9767 18.0727L74.8713 17.2444ZM79.6957 25.4524C79.8664 25.7135 80.1375 26.1703 80.4989 26.823L79.8764 26.9033L79.9568 27.5208L79.5451 27.571L79.4146 26.5368L79.0029 26.587C79.1033 26.2958 79.3393 25.9143 79.6957 25.4474V25.4524ZM80.7148 16.9231L82.5773 16.6872L82.6275 17.0988C82.2159 17.149 81.5783 17.0988 80.7148 16.9231ZM86.7993 84.6205C87.5724 85.223 87.9991 85.8003 88.0694 86.3475L87.0352 86.478L86.7993 84.6155V84.6205ZM88.2652 92.8386C88.471 93.3758 88.6518 93.9832 88.8124 94.6609C88.968 95.3437 89.2542 95.655 89.6658 95.6048L89.716 96.0164C88.476 96.172 87.8385 96.1168 87.8033 95.8407L87.3917 95.8909C87.2712 94.927 87.3415 94.425 87.6226 94.3899C87.708 93.9581 87.9238 93.441 88.2652 92.8386ZM93.175 91.7944L94.0033 91.689C94.4852 92.191 94.5204 92.4621 94.1087 92.5173L94.2392 93.5515L93.4109 93.6569L93.175 91.7944ZM97.161 22.3901C97.9391 22.9925 98.3608 23.5699 98.4311 24.1171L97.3969 24.2476L97.161 22.3851V22.3901ZM119.847 7.53533L120.259 7.48011C121.449 8.03233 124.938 7.93694 130.726 7.19897C131.344 6.56141 132.669 5.97405 134.702 5.43187C136.218 5.2411 138.286 4.97503 140.902 4.64369L145.892 4.21698L146.128 6.07947C145.435 6.16983 144.321 6.16984 142.77 6.08951L142.82 6.50117C142.594 6.94796 140.832 7.38472 137.523 7.80642C135.043 8.12269 130.134 8.60965 122.794 9.26228C116.559 9.77434 112.894 10.1709 111.815 10.447C109.902 10.8336 108.923 10.8135 108.868 10.4019C108.969 10.1107 109.28 9.7894 109.797 9.44301C111.584 9.2171 114.29 9.01127 117.909 8.83054C118.442 8.62471 119.114 8.39881 119.923 8.15282L119.842 7.53533H119.847ZM109.445 87.6226L110.274 87.5172L109.501 88.0343L109.45 87.6226H109.445ZM110.65 21.0949L111.273 21.0146C112.066 21.7525 112.488 22.3299 112.543 22.7415C111.544 23.7104 111.117 24.7446 111.258 25.844L110.846 25.8942L110.655 21.0849L110.65 21.0949ZM111.569 28.329C111.795 29.0017 112.121 29.9405 112.558 31.1453L111.935 31.2257L111.569 28.334V28.329ZM112.171 56.1911C112.623 57.5365 112.884 58.4854 112.955 59.0326L112.543 59.0828L112.176 56.1911H112.171ZM117.041 11.8828L135.229 9.56851L135.335 10.3968C128.567 12.2393 122.468 12.7363 117.041 11.8828ZM156.796 122.985C158.056 122.965 158.719 123.231 158.789 123.783L158.172 123.863C157.564 123.522 157.107 123.231 156.801 122.99L156.796 122.985Z" fill="#3D2046"/>
<path d="M265.93 71.0861L265.98 71.4977L264.946 71.6282C264.695 67.4615 264.514 64.4042 264.409 62.4563L263.375 62.5869L264.118 71.7337C251.663 72.8984 243.033 73.8572 238.229 74.6052C235.091 75.288 232.852 75.8502 231.512 76.302C223.123 77.5119 216.792 78.3854 212.52 78.9276C210.623 79.4497 209.202 79.8413 208.258 80.0973L201.33 80.1375C201.822 83.998 202.615 89.711 203.72 97.2664C204.819 104.832 205.617 110.54 206.109 114.395L188.127 116.685L188.232 117.513L192.57 116.961L192.62 117.377L191.792 117.483C190.622 118.191 187.756 118.768 183.187 119.205C178.483 119.667 176.099 119.616 176.028 119.064C177.68 118.853 179.337 118.642 180.988 118.432C183.604 118.1 184.879 117.658 184.809 117.106C178.88 117.859 175.893 118.03 175.843 117.618L175.431 117.669C174.959 116.188 174.678 115.033 174.573 114.21L173.955 114.29L174.482 118.422L173.448 118.552L173.292 117.312C172.911 116.519 172.695 115.359 172.64 113.823C172.62 112.563 172.6 111.308 172.579 110.048C171.786 102.728 171.159 97.2062 170.682 93.4862C170.33 90.7301 169.778 86.9499 169.03 82.1405C167.881 76.4075 167.183 72.5771 166.937 70.6443L166.821 64.7807C166.666 63.5407 166.369 61.7937 165.943 59.5346C165.516 57.2805 165.175 55.6791 164.914 54.7302C164.748 51.2512 164.663 49.444 164.643 49.3034C163.382 39.3835 162.288 31.8883 161.364 26.8229C161.128 22.7917 160.882 19.7445 160.621 17.6761L159.793 17.7816C159.592 19.4884 159.216 20.377 158.663 20.4473C158.417 17.4 158.207 14.6238 158.026 12.1288C159.06 12.5605 159.597 12.912 159.632 13.1831L160.044 13.1328L159.994 12.7212C161.405 11.7021 164.452 10.8938 169.136 10.2964C170.928 10.0705 173.759 9.77935 177.64 9.42794C181.239 9.11167 183.589 8.88074 184.693 8.74017C189.914 7.93694 201.641 6.58651 219.885 4.68385C226.381 4.0011 231.271 3.3786 234.559 2.81633C235.799 2.66071 239.062 2.45488 244.353 2.20387C248.505 1.81731 251.959 1.44582 254.715 1.09441C255.955 0.938782 256.603 1.06428 256.653 1.47594L257.064 1.42574C257.205 2.53018 258.375 11.2051 260.584 27.4454C262.07 38.0381 263.199 46.9289 263.972 54.1077C263.802 54.9712 263.716 55.9602 263.721 57.0797C263.776 58.6159 264.012 59.3539 264.424 59.2986L264.294 58.2645L264.916 58.1841C264.991 62.0949 265.423 66.0307 266.206 69.9917C266.432 70.6644 266.337 71.0258 265.925 71.076L265.93 71.0861ZM162.66 48.5102L163.277 48.4299C162.896 47.6367 162.569 46.7029 162.288 45.6136L162.655 48.5052L162.66 48.5102ZM162.85 64.8711C163.262 64.8209 163.177 64.1281 162.589 62.8027L162.85 64.8711ZM163.192 8.11265L165.933 8.18293L165.802 7.14877L163.945 7.38472C163.548 7.57549 163.297 7.81646 163.197 8.10763L163.192 8.11265ZM163.895 58.2243C164.306 58.1741 164.231 57.5516 163.659 56.3618L163.895 58.2243ZM164.05 71.0208L164.462 70.9706L164.713 67.9986C164.286 69.0328 164.065 70.0419 164.045 71.0208H164.05ZM164.758 65.0468C164.482 65.0819 164.361 65.2375 164.397 65.5136L164.808 65.4634L164.889 66.0809C165.852 65.9604 165.652 64.3791 164.286 61.3268L164.758 65.0468ZM170.15 118.974L171.184 118.843C170.466 113.196 169.668 109.656 168.784 108.226L170.15 118.974ZM172.504 120.987C172.78 120.952 173.082 121.122 173.408 121.504C173.358 121.092 173.629 120.5 174.231 119.717L174.643 119.667L174.593 119.25L172.318 119.541L172.504 120.987ZM173.373 127.809L176.761 128.01L206.501 124.019L206.451 123.607L173.322 127.398L173.373 127.809ZM186.711 117.081C186.28 116.996 186.014 117.101 185.908 117.392L185.858 116.981C186.405 116.91 186.696 116.946 186.711 117.081ZM231.738 33.4245C231.115 32.9476 228.098 32.9074 222.691 33.3141C217.696 33.6705 214.242 34.042 212.329 34.4235C210.417 34.8051 208.996 35.1966 208.067 35.5932C203.76 35.8643 200.045 35.287 196.922 33.8613C197.595 34.7549 197.861 35.2117 197.726 35.2318L197.776 35.6434C196.28 37.0943 195.768 39.6797 196.24 43.3996C196.43 44.9208 196.847 47.0694 197.485 49.8556C198.117 52.6469 198.489 54.4541 198.594 55.2825L199.006 55.2323C199.518 54.8909 200.376 54.429 201.561 53.8567C202.751 53.2844 203.353 53.0686 203.368 53.2041L203.78 53.1539C204.177 52.9681 205.838 52.8226 208.765 52.7272C212.244 52.5665 214.533 52.4159 215.638 52.2754C217.154 52.0846 217.887 51.7784 217.832 51.3667C220.402 51.7432 222.787 51.7884 224.99 51.5073C225.507 51.1609 226.105 50.945 226.798 50.8546C227.485 50.7693 228.55 50.8797 229.991 51.181C231.426 51.4922 232.561 51.5876 233.389 51.4822L233.309 50.8647C234.027 48.8164 234.057 46.8535 233.399 44.971C233.018 44.1778 232.636 43.3896 232.255 42.5964C232.957 41.5271 233.143 39.6847 232.812 37.0642C232.701 35.1163 232.34 33.9064 231.717 33.4195L231.738 33.4245ZM198.418 116.639C198.383 116.363 197.605 116.323 196.094 116.514C197.229 116.649 198.007 116.69 198.418 116.639ZM203.399 3.84046L203.348 3.42378L198.594 4.0262C200.678 3.9007 202.279 3.84045 203.404 3.83543L203.399 3.84046ZM201.521 116.248C201.486 115.972 200.642 115.937 198.986 116.147C200.125 116.283 200.969 116.318 201.521 116.248ZM199.789 44.8404C199.824 45.1166 200.12 44.976 200.678 44.4137C201.235 43.8515 201.581 43.5653 201.722 43.5452L201.672 43.1336C200.964 43.0884 200.12 43.0533 199.136 43.0332C199.377 43.8414 199.593 44.4438 199.789 44.8404ZM200.341 49.1779C200.306 48.9068 200.406 48.6106 200.647 48.2994L201.265 48.219C200.537 48.0333 200.03 47.8877 199.739 47.7823C199.965 48.455 200.166 48.9219 200.336 49.1779H200.341ZM202.796 37.1043L202.716 36.4868L200.858 36.7228C201.722 36.8935 202.369 37.024 202.796 37.1043ZM206.883 49.3988C207.018 49.3837 207.339 49.1327 207.836 48.6458L206.802 48.7763L206.883 49.3988ZM207.149 114.27L208.183 114.139L208.102 113.522L207.691 113.572C207.324 112.919 207.058 112.463 206.888 112.202L207.149 114.27ZM211.25 123.412L211.2 123L209.337 123.236L211.25 123.412ZM210.045 113.903L211.079 113.773C210.492 112.447 210.015 111.459 209.654 110.801L210.05 113.903H210.045ZM214.322 96.3427C214.599 96.3075 214.83 95.931 215.02 95.2031L214.192 95.3085L214.322 96.3427ZM220.387 106.077C220.407 106.217 220.241 106.027 219.895 105.51L220.387 106.077ZM220.678 108.351C221.09 108.301 221.401 107.98 221.607 107.392L220.573 107.523L220.678 108.351ZM221.667 111.162C221.943 111.127 222.179 110.821 222.39 110.229L221.562 110.334L221.667 111.162ZM223.806 121.394L222.977 121.499C222.992 121.634 223.268 121.599 223.806 121.394ZM229.187 38.1586L229.599 38.1083L229.519 37.4909L229.93 37.4407C229.895 37.1646 229.539 36.5822 228.866 35.6836L228.449 35.7388C228.725 36.8232 228.971 37.6365 229.177 38.1686L229.187 38.1586ZM232.114 89.2492L232.064 88.8375C231.2 88.6668 230.417 88.5564 229.709 88.5062C230.744 88.9379 231.547 89.1839 232.114 89.2492ZM243.43 100.625L243.48 101.037L244.097 100.956L244.178 101.574L245.623 101.388L245.493 100.354C245.905 100.304 245.709 99.8368 244.895 98.9582L243.425 100.615L243.43 100.625ZM246.417 107.598C246.437 107.739 246.276 107.618 245.95 107.237C246.12 107.498 246.276 107.618 246.417 107.598ZM248.882 75.7749C249.193 76.0159 254.379 75.4938 264.439 74.2136L264.309 73.1795C263.515 73.561 262.853 73.8572 262.321 74.063L252.526 74.6805C250.819 75.5992 249.609 75.9607 248.882 75.7749ZM261.096 8.26827L261.924 8.16285C262.145 6.59655 262.346 5.44692 262.536 4.72401C262.672 4.70895 262.717 4.49309 262.667 4.07641C262.386 1.87254 261.512 0.517081 260.046 0C260.016 1.96792 260.363 4.72401 261.096 8.26827ZM267.622 87.6778L268.034 87.6276L267.983 87.216L268.606 87.1356C268.536 86.5834 267.913 86.1065 266.743 85.6898C267.14 86.6236 267.436 87.2812 267.627 87.6778H267.622ZM268.054 36.5772C267.778 36.6123 267.667 36.8382 267.717 37.2499C268.129 37.1997 268.179 36.4918 267.868 35.1314L268.054 36.5772Z" fill="#3D2046"/>
<path d="M248.801 36.5019C251.663 36.1705 254.564 36.3211 257.386 36.9336C267.11 39.0069 275.619 44.8505 281.051 53.179C289.62 66.5277 289.766 80.3332 286.563 95.3085C297.08 102.884 298.526 110.334 291.488 121.368C305.469 143.693 313.783 170.687 295.479 193.649C284.359 207.6 265.057 215.502 247.677 217.525C243.133 218.057 239.649 217.571 236.005 214.568C235.287 213.851 234.509 212.877 233.997 211.988C232.33 209.116 231.908 205.683 232.827 202.49C235.623 193.027 244.624 194.176 252.26 192.434C256.859 191.4 261.286 189.713 265.413 187.429C288.205 174.768 281.955 154.477 271.412 135.741C259.565 138.859 249.65 134.567 248.048 121.675C238.51 115.495 234.504 106.709 236.301 95.3637C221.612 95.2182 214.86 79.525 223.715 68.2697C222.049 61.3017 223.991 54.3236 230.367 50.3777C231.727 49.5343 233.183 48.9369 234.644 48.2943C236.607 40.5431 241.301 37.5109 248.806 36.4968L248.801 36.5019Z" fill="#3D2046"/>
<path d="M248.214 43.1134C254.359 42.6014 258.942 43.6255 264.334 46.6075C283.672 57.3005 284.605 82.2911 278.606 101.102C277.728 103.853 276.653 106.413 275.76 109.084C279.359 106.845 280.795 104.987 282.934 101.288C296.9 107.954 283.611 122.453 275.192 127.061C269.841 130.565 259.534 132.127 255.88 125.57C255.302 124.531 254.941 123.105 254.625 121.951C258.691 121.639 259.519 121.634 263.3 120.249C266.126 118.667 266.979 117.673 268.972 115.153C267.707 115.525 266.447 115.982 265.197 116.408C260.604 117.588 256.964 118.477 252.335 116.353C248.435 114.541 245.403 111.258 243.907 107.226C242.17 102.402 242.355 93.948 244.509 89.3294C241.196 86.1014 239.172 83.9227 235.196 81.6033C235.638 83.3303 237.405 86.8494 237.446 87.8535C236.211 88.7672 232.897 88.235 231.627 87.5623C223.896 83.4759 225.096 72.5469 233.439 70.0318C242.23 67.1251 250.568 73.3702 257.341 78.1394C255.589 73.2899 253.58 71.2316 249.489 68.0889C242.546 64.6652 237.707 63.6963 230.141 65.6993C228.846 58.8367 232.531 55.5435 238.846 54.2834C251.492 51.9891 257.612 59.0877 266.683 65.2626C264.078 58.2594 259.494 53.9721 252.928 50.5735C248.204 48.8967 246.653 48.5403 241.667 48.2893C243.535 45.0061 244.84 44.3986 248.214 43.1235V43.1134Z" fill="#FFB200"/>
<path d="M235.196 81.5984C235.638 83.3253 237.405 86.8445 237.446 87.8485C236.211 88.7622 232.897 88.23 231.627 87.5573C223.896 83.4709 225.096 72.5419 233.439 70.0268C232.104 72.7176 232.044 73.0138 232.154 75.9356C235.437 81.3022 244.102 80.0521 248.912 90.3385C248.405 94.2844 247.877 97.1811 248.465 101.132C249.574 108.592 254.253 113.431 261.492 115.264C262.426 115.5 264.404 115.982 265.197 116.403C260.604 117.583 256.964 118.472 252.335 116.348C248.435 114.536 245.403 111.253 243.907 107.221C242.17 102.397 242.355 93.943 244.509 89.3245C241.196 86.0965 239.172 83.9177 235.196 81.5984Z" fill="#CE8900"/>
<path d="M254.62 121.951C258.686 121.639 259.514 121.634 263.295 120.249C265.468 128.798 269.068 125.962 275.187 127.061C269.836 130.565 259.529 132.127 255.875 125.57C255.297 124.531 254.936 123.105 254.62 121.951Z" fill="#CE8900"/>
<path d="M230.136 65.6943C228.841 58.8317 232.526 55.5385 238.841 54.2784C238.108 56.0756 236.015 57.17 236.974 59.404C238.595 63.1792 247.973 64.6802 249.484 68.0789C242.541 64.6551 237.702 63.6862 230.136 65.6893V65.6943Z" fill="#CE8900"/>
<path d="M241.668 48.2843C243.535 45.001 244.84 44.3936 248.214 43.1185C247.857 49.2532 251.382 47.225 252.923 50.5735C248.199 48.8967 246.648 48.5403 241.662 48.2893L241.668 48.2843Z" fill="#CE8900"/>
<path d="M50.6639 42.4408C58.636 42.1094 63.7917 46.0704 67.1301 53.0033C77.3212 55.925 80.9257 61.9995 79.6003 72.2507C80.4889 73.1594 81.3624 74.053 82.0502 75.1273C86.8997 82.6626 84.6055 93.1599 76.5832 97.4622C73.8622 98.918 71.7337 99.2393 68.7115 99.7213C70.8903 111.087 67.2908 119.501 58.3247 126.444C57.8227 140.551 46.713 144.768 34.4436 141.268C27.2647 151.5 21.868 167.564 27.4605 179.543C32.3301 190.547 44.8555 195.492 56.0907 197.023C62.9282 197.957 70.9455 196.852 74.1032 205.125C75.5038 208.79 75.1223 211.948 73.5158 215.477C69.7356 222.51 63.375 221.938 56.7082 221.391C31.7076 219.328 7.25419 205.783 1.35043 179.748C-3.08241 160.2 3.98101 143.723 14.0465 127.473C8.5745 118.552 9.21207 108.898 18.6701 103.165C16.9633 98.1299 15.9592 92.8838 15.6881 87.5724C14.7544 72.3411 19.4181 57.7273 32.3853 48.7863C38.0832 44.8605 43.7711 42.8474 50.6589 42.4458L50.6639 42.4408Z" fill="#3D2046"/>
<path d="M49.9008 49.203C54.2885 48.5453 57.5717 49.7702 59.9312 53.6458C54.5495 53.9671 51.6328 55.0515 46.9088 57.6971C42.1245 61.0255 38.5501 65.8148 36.7177 71.3471C42.2098 66.5879 50.2422 59.3689 58.0034 59.3438C65.2877 57.9984 74.1835 60.5737 72.8632 69.8159C64.8911 68.5358 61.9041 69.1884 54.6951 73.069C50.5635 76.307 48.3696 78.3653 46.6377 83.3805C54.8256 77.8332 64.3289 70.4284 74.4747 76.6183C83.6767 85.4589 71.4676 95.4089 67.1 92.4671L66.8641 91.945C67.8028 89.9268 68.6412 88.2501 69.2838 86.1014C66.1863 87.9338 62.1903 91.3024 59.8408 94.0484C61.0005 97.1409 61.869 99.4351 62.2555 102.774C63.8168 116.323 54.3487 126.429 40.3574 121.916L37.6716 121.263L37.4708 121.469C38.3493 123.316 41.1807 125.033 42.998 125.937C44.1577 126.368 44.8354 126.599 46.0101 126.901C47.1799 127.197 50.8898 127.252 51.6478 127.679C51.9641 128.507 51.5775 129.104 51.3115 129.888C48.3847 138.472 35.1113 136.354 29.2929 131.966C28.2085 131.449 26.9083 130.601 25.9645 129.863C18.148 123.753 12.6961 115.575 22.7867 108.351C25.1512 111.835 26.3761 113.642 30.081 115.655C22.3851 98.2554 16.9582 75.1825 30.7387 59.0777C35.2519 53.8015 42.9027 49.6146 49.9109 49.213L49.9008 49.203Z" fill="#FFB200"/>
<path d="M74.4747 76.6133C83.6767 85.4539 71.4676 95.4039 67.1 92.4621L66.8641 91.94C67.8028 89.9219 68.6412 88.2451 69.2838 86.0965C66.1863 87.9288 62.1903 91.2974 59.8408 94.0434C61.0005 97.1359 61.869 99.4301 62.2555 102.769C63.8168 116.318 54.3487 126.424 40.3574 121.911C40.8644 121.564 40.6938 121.71 41.2912 121.569C44.5442 120.796 47.8726 120.244 50.5082 118.07C54.9812 114.39 56.9492 109.957 56.9391 104.199C56.9341 101.529 56.6781 98.7122 56.9291 96.0716C57.3709 91.438 61.6481 87.7531 65.7144 86.0563C67.6372 85.2531 69.9264 85.1677 71.5931 83.7018C73.817 81.7389 74.2086 79.3493 74.4797 76.6083L74.4747 76.6133Z" fill="#CE8900"/>
<path d="M42.998 125.937C44.1577 126.369 44.8354 126.599 46.0101 126.901C47.1798 127.197 50.8898 127.252 51.6478 127.679C51.9641 128.507 51.5775 129.105 51.3115 129.888C48.3847 138.472 35.1113 136.354 29.2929 131.966C30.1162 131.846 31.306 132.127 32.1644 132.232C36.9637 132.819 42.1546 131.484 42.998 125.937Z" fill="#CE8900"/>
<path d="M58.0034 59.3388C65.2877 57.9933 74.1835 60.5687 72.8632 69.8109C64.8911 68.5308 61.9041 69.1834 54.6951 73.064C55.7293 68.7617 69.6101 65.6391 62.2053 60.8047C60.885 59.9412 59.2333 60.5587 58.0084 59.3388H58.0034Z" fill="#CE8900"/>
<path d="M49.9008 49.203C54.2884 48.5453 57.5717 49.7702 59.9312 53.6458C54.5495 53.9671 51.6328 55.0515 46.9088 57.6971C47.1196 56.0154 47.8224 55.7393 49.0725 54.6449C50.9701 52.9782 55.8096 49.3636 49.9008 49.208V49.203Z" fill="#CE8900"/>
</svg>
