<svg width="279" height="259" viewBox="0 0 279 259" fill="none" xmlns="http://www.w3.org/2000/svg">
<path d="M117.054 152.68L125.391 153.246C126.272 152.867 128.236 152.803 131.267 153.059C134.55 153.315 136.385 153.694 136.764 154.196C136.888 154.452 137.015 154.762 137.143 155.141C137.266 156.027 137.266 157.228 137.143 158.743C136.888 160.766 136.764 161.903 136.764 162.154C136.509 170.87 136.385 175.171 136.385 175.043C136.385 176.435 136.449 178.581 136.572 181.485C136.696 184.393 136.76 186.539 136.76 187.927C136.76 189.571 136.696 192.036 136.572 195.319C136.445 198.606 136.385 200.939 136.385 202.332C136.509 207.893 136.449 216.102 136.198 226.968C136.198 227.726 136.011 234.547 135.627 247.436C135.627 248.952 135.5 249.709 135.248 249.709V250.088C133.733 249.837 128.993 249.709 121.036 249.709C118.004 249.586 110.169 249.65 97.5361 249.897C96.3993 250.024 94.8835 249.961 92.9887 249.709H78.5886C73.9134 249.965 70.4389 250.088 68.1652 250.088H48.6471C47.3824 250.088 46.7523 249.965 46.7523 249.709H46.3734C46.1177 241.879 46.2455 220.083 46.7523 184.329V166.135C46.7523 160.451 47.0034 156.944 47.5102 155.616C48.0124 154.292 49.7839 153.566 52.8155 153.438C51.1719 153.438 53.3177 153.502 59.2577 153.625C62.1614 153.753 66.4577 153.812 72.1419 153.812C73.4021 153.812 74.0367 154.068 74.0367 154.57H74.4156C73.6577 156.972 73.402 160.382 73.6577 164.802C73.6577 169.605 73.5299 173.016 73.2788 175.034C73.0231 175.919 72.772 176.362 72.5209 176.362C72.8998 177.12 73.0231 178.257 72.8998 179.773V183.375C72.8998 186.662 72.772 197.652 72.5209 216.348V221.275H78.7758C80.036 221.53 81.9992 221.781 84.6518 222.032C87.4277 221.909 91.724 221.781 97.5407 221.653C98.5497 221.781 100.129 221.909 102.28 222.032L105.503 222.982C105.503 222.101 105.626 221.653 105.882 221.653C105.754 217.106 105.946 210.664 106.448 202.323C107.078 193.607 107.398 187.165 107.398 182.992C107.398 182.234 107.462 181.161 107.585 179.768C107.708 178.38 107.772 177.371 107.772 176.737V163.848C107.772 163.218 107.549 162.081 107.11 160.437C106.667 158.798 106.448 157.593 106.448 156.835C106.448 155.954 106.635 155.196 107.019 154.561C107.27 154.182 108.786 153.867 111.566 153.612C114.598 153.36 116.429 153.045 117.063 152.666L117.054 152.68ZM47.3139 250.846H51.2951V251.412C50.4094 251.289 49.0808 251.097 47.3139 250.846ZM49.9665 151.543H56.2215V151.922L49.0214 152.68C49.0214 152.429 49.1447 152.301 49.4004 152.301C49.4004 152.05 49.5922 151.922 49.9711 151.922V151.543H49.9665ZM55.2764 144.722C55.9065 145.101 56.2215 145.101 56.2215 144.722H56.9794C56.0936 145.608 55.0846 146.051 53.9478 146.051C53.6921 146.051 53.5688 145.928 53.5688 145.672H53.9478V145.293C54.1989 145.17 54.6418 144.978 55.2764 144.727V144.722ZM56.6004 151.543H59.2531V151.922L56.6004 151.543ZM71.763 146.617H72.1419C72.1419 146.873 72.2652 146.996 72.5209 146.996C72.2652 147.252 72.0141 147.375 71.763 147.375V146.617ZM75.1735 216.353C75.2968 216.86 75.3927 217.426 75.4566 218.06C75.5205 218.695 75.7397 219.005 76.1186 219.005V219.384C74.9818 219.384 74.4111 219.261 74.4111 219.005H74.0321C74.0321 218.124 74.1554 217.681 74.4111 217.681C74.5343 217.302 74.79 216.86 75.169 216.353H75.1735ZM75.1735 154.575C75.2968 154.831 75.4886 155.269 75.7442 155.899H75.1735V156.465H74.7946V155.52H74.4156C74.5389 155.269 74.7946 154.954 75.1735 154.575ZM74.7946 208.774C75.4246 209.408 75.7442 209.975 75.7442 210.477H74.7946V208.774ZM77.0683 146.996H78.7758V147.375C78.3969 147.375 77.8262 147.252 77.0683 146.996ZM79.7209 215.974H80.4788C80.8578 216.481 80.8578 216.732 80.4788 216.732V217.681H79.7209V215.974ZM91.2812 153.817C91.9112 154.452 92.2308 155.018 92.2308 155.525H91.2812V153.817ZM94.8789 214.079H95.6368L94.8789 214.458V214.079ZM100.947 186.032C101.198 187.297 101.326 188.183 101.326 188.685H100.947V186.032ZM113.452 143.015H113.831C114.84 143.649 117.999 143.964 123.305 143.964C123.935 143.462 125.199 143.083 127.094 142.827H132.778L137.326 143.015V144.722C136.691 144.722 135.682 144.599 134.294 144.343V144.722C134.039 145.101 132.399 145.288 129.368 145.288C127.094 145.288 122.606 145.165 115.913 144.909C110.229 144.658 106.877 144.594 105.868 144.722C104.097 144.85 103.216 144.722 103.216 144.343C103.339 144.092 103.659 143.841 104.165 143.585C105.805 143.585 108.27 143.713 111.557 143.964C112.059 143.841 112.694 143.713 113.452 143.585V143.015ZM103.599 154.196H104.17C104.8 154.954 105.115 155.52 105.115 155.899C104.102 156.657 103.599 157.543 103.599 158.552H103.22L103.599 154.191V154.196ZM103.599 160.83C103.723 161.464 103.914 162.346 104.17 163.482H103.599V160.83ZM110.42 146.617H127.099V147.375C120.78 148.261 115.223 148.009 110.42 146.617ZM133.541 251.412C134.678 251.54 135.248 251.855 135.248 252.358H134.682C134.176 251.979 133.797 251.664 133.545 251.412H133.541Z" fill="white"/>
<path d="M145.667 197.784C146.046 199.049 146.046 199.679 145.667 199.679V197.784ZM146.996 202.711L146.425 205.363H146.046C146.174 204.482 146.489 203.596 146.996 202.711ZM146.046 239.473C146.681 240.866 146.996 244.148 146.996 249.326H146.046V239.473ZM238.336 216.166C238.081 212.504 238.149 208.902 238.524 205.363H237.957V206.313C237.578 206.313 237.451 205.619 237.579 204.226C237.702 203.217 237.894 202.332 238.145 201.574C238.268 195.004 238.268 186.859 238.145 177.129C238.017 162.222 237.957 154.264 237.957 153.251H237.579C237.579 152.872 237.008 152.685 235.871 152.685C233.342 152.685 230.187 152.621 226.397 152.498C221.594 152.119 218.626 151.931 217.49 151.931C214.458 152.059 209.97 152.059 204.035 151.931C187.356 151.552 176.618 151.429 171.819 151.552C170.806 151.552 168.66 151.488 165.377 151.365C161.839 151.242 159.25 151.173 157.606 151.173C153.31 151.173 150.466 151.552 149.078 152.31V152.689H148.699C148.699 152.438 148.256 152.059 147.375 151.552C147.252 153.826 147.124 156.355 146.996 159.131C147.503 159.131 147.941 158.374 148.32 156.858H149.078C149.078 158.752 148.95 161.533 148.699 165.195C148.95 169.87 149.078 176.755 149.078 185.85C149.078 185.977 148.95 187.621 148.699 190.776C148.827 191.662 148.95 193.146 149.078 195.227C149.201 197.309 149.265 198.921 149.265 200.058L148.699 205.363C148.699 207.135 148.886 210.669 149.265 215.974C149.388 220.398 149.452 223.872 149.452 226.397C149.452 229.808 149.388 234.862 149.265 241.555C149.137 242.692 149.009 243.829 148.886 244.966C148.763 246.358 148.827 247.427 149.073 248.189V249.326H150.023V245.536H150.589C150.589 246.294 150.712 247.367 150.968 248.76H151.347C151.347 249.139 154.064 249.326 159.497 249.326C159.497 249.833 158.296 250.084 155.894 250.084H151.347C151.347 250.591 153.493 250.906 157.789 251.034C161.958 251.161 164.61 250.97 165.747 250.467H166.505V250.088H162.524V249.331H179.01C179.01 245.797 178.946 240.551 178.823 233.602C178.695 226.653 178.636 221.412 178.636 217.873L184.891 218.631C185.772 218.508 187.101 218.316 188.872 218.065C192.785 218.065 198.597 218.001 206.308 217.878C207.568 217.627 209.655 217.375 212.563 217.12C216.983 216.997 224.881 217.12 236.25 217.499L236.629 209.162H237.579C237.451 210.933 237.263 213.709 237.008 217.499H237.957V217.12C238.336 217.12 238.46 216.805 238.336 216.17V216.166ZM147.375 196.647C148.261 199.556 148.261 201.008 147.375 201.008V200.437H146.996C146.996 200.186 147.124 200.058 147.375 200.058V196.647ZM147.375 182.243C147.503 183.256 147.69 184.138 147.941 184.895H147.375V182.243ZM147.375 192.095C147.754 193.232 147.754 193.803 147.375 193.803V192.095ZM147.941 250.084H150.027V250.463H149.649C149.014 251.097 148.699 251.6 148.699 251.979C148.448 251.6 148.197 251.412 147.941 251.412V250.084ZM147.941 257.288L178.261 257.667V258.046L150.973 258.234L147.941 257.667V257.288ZM153.251 147.941H154.954V148.891L152.493 148.512C152.616 148.261 152.872 148.073 153.251 147.946V147.941ZM160.451 249.326V249.705C160.574 249.454 160.83 249.39 161.209 249.518C161.209 249.394 160.953 249.331 160.451 249.331V249.326ZM169.737 250.084C171.125 250.084 171.824 250.212 171.824 250.463C171.445 250.463 170.751 250.34 169.737 250.084ZM172.39 250.084C173.906 250.084 174.664 250.212 174.664 250.463C174.157 250.463 173.399 250.34 172.39 250.084ZM211.997 182.622C211.997 185.023 211.618 186.667 210.86 187.548C211.111 188.306 211.362 189.064 211.618 189.822C211.997 191.593 211.741 193.36 210.86 195.127V195.693C210.102 195.693 209.089 195.474 207.829 195.031C206.564 194.588 205.619 194.369 204.984 194.369C204.35 194.369 203.784 194.497 203.277 194.748C201.254 194.748 199.108 194.433 196.835 193.803C196.835 194.182 196.141 194.369 194.748 194.369C193.735 194.369 191.653 194.246 188.493 193.99C185.84 193.739 184.325 193.675 183.946 193.803H183.567C183.567 193.68 183.001 193.803 181.859 194.182C180.722 194.561 179.901 194.876 179.394 195.132H179.015C179.015 194.374 178.887 192.698 178.636 190.109C178.38 187.521 178.257 185.53 178.257 184.142C178.257 180.732 179.015 178.458 180.531 177.321V176.942C180.654 176.942 180.467 176.499 179.964 175.613C182.617 177.257 185.9 178.207 189.817 178.458C190.698 178.207 192.027 178.02 193.798 177.892C195.565 177.768 198.725 177.832 203.272 178.079C208.199 178.335 210.915 178.714 211.422 179.216C211.924 179.723 212.116 180.859 211.988 182.626L211.997 182.622ZM179.969 247.431C180.092 247.687 180.284 248.125 180.535 248.76H180.914V249.326H179.969V247.431ZM180.914 184.138C181.795 184.265 182.553 184.393 183.188 184.516V184.895C183.06 184.895 182.713 185.119 182.147 185.557C181.581 186 181.293 186.096 181.293 185.84C181.165 185.462 181.037 184.895 180.914 184.138ZM180.914 188.498C181.165 188.626 181.608 188.813 182.238 189.064H181.672C181.416 189.32 181.293 189.571 181.293 189.822C181.165 189.571 181.037 189.128 180.914 188.493V188.498ZM180.914 257.667H182.622V258.046L180.914 257.667ZM182.622 246.486C182.873 247.121 183.188 248.066 183.567 249.331H182.622V246.486ZM183.192 178.645H184.895V179.211C184.516 179.088 183.95 178.896 183.192 178.645ZM184.895 148.891H189.256V149.27C188.242 149.146 186.79 149.018 184.895 148.891ZM187.169 190.201H188.119C187.612 190.58 187.297 190.767 187.169 190.767V190.201ZM188.498 233.031H189.256C189 233.666 188.749 233.981 188.498 233.981V233.031ZM192.474 242.884C192.725 243.391 192.853 243.578 192.853 243.45L192.474 242.884ZM192.853 244.779H193.803C193.547 245.285 193.232 245.536 192.853 245.536V244.779ZM193.424 247.431H194.182C193.926 247.938 193.675 248.189 193.424 248.189V247.431ZM193.424 257.667H194.182C193.675 257.791 193.424 257.791 193.424 257.667ZM203.277 228.671C203.907 228.799 204.605 228.986 205.363 229.237V229.616C204.856 229.493 204.162 229.173 203.277 228.671ZM208.203 180.914H208.582C209.084 181.8 209.34 182.366 209.34 182.622H208.961V183.188H208.582C208.454 182.686 208.326 181.928 208.203 180.914ZM215.787 239.852C216.417 240.738 216.545 241.176 216.166 241.176V242.121H214.837V241.555H214.271V241.176L215.787 239.852ZM215.787 247.431C216.038 247.81 216.166 247.938 216.166 247.81C216.038 247.81 215.91 247.687 215.787 247.431ZM225.452 218.818L234.36 219.384C234.862 219.261 235.497 219.069 236.254 218.818V219.768C227.032 219.768 222.293 219.645 222.042 219.389C222.672 219.645 223.808 219.453 225.452 218.823V218.818ZM237.008 230.378C238.017 230.885 238.524 231.392 238.524 231.894H237.957V232.273H237.579C237.451 231.894 237.263 231.264 237.008 230.378ZM240.802 152.301C242.062 152.936 242.697 154.26 242.697 156.282C242.697 156.661 242.633 156.853 242.505 156.853C242.249 157.488 241.939 158.497 241.56 159.885H240.802C240.546 156.602 240.546 154.073 240.802 152.306V152.301ZM243.833 184.895C243.957 186.16 243.833 186.79 243.455 186.79C243.455 186.411 243.578 186.224 243.833 186.224V184.9V184.895Z" fill="white"/>
<path d="M113.79 15.9844L122.131 15.4958C122.958 15.0073 124.894 14.7014 127.934 14.569C131.226 14.4092 133.089 14.5507 133.527 15.0027C133.682 15.2402 133.847 15.5369 134.025 15.8976C134.258 16.7605 134.413 17.9476 134.481 19.4679C134.481 21.5088 134.504 22.6502 134.536 22.9013C135.385 31.5806 135.801 35.8587 135.787 35.7308C135.961 37.1096 136.294 39.2327 136.787 42.0999C137.276 44.9671 137.613 47.0902 137.787 48.469C137.992 50.0989 138.239 52.5507 138.531 55.8243C138.819 59.1024 139.052 61.4263 139.23 62.8052C140.056 68.3068 141.029 76.4565 142.147 87.2679C142.243 88.0213 142.914 94.8104 144.165 107.64C144.357 109.147 144.325 109.914 144.078 109.946L144.124 110.32C142.59 110.261 137.874 110.731 129.975 111.735C126.953 111.996 119.186 113.046 106.69 114.89C105.576 115.16 104.065 115.287 102.152 115.274C100.148 115.529 98.7049 115.712 97.8283 115.822C95.4451 116.123 92.1213 116.548 87.8661 117.086C83.2593 117.931 79.8305 118.492 77.5751 118.776L58.2121 121.236C56.9566 121.396 56.3174 121.351 56.2854 121.099L55.911 121.145C54.6692 113.406 52.0485 91.7743 48.0398 56.2397C47.6746 53.3588 46.9076 47.3413 45.7433 38.1917C45.0265 32.5531 44.8348 29.0421 45.168 27.6633C45.5013 26.2845 47.1632 25.3394 50.1583 24.8326C48.5284 25.038 50.6651 24.8326 56.5731 24.2071C59.4723 23.9697 63.7411 23.4857 69.3797 22.7689C70.6307 22.6091 71.2927 22.7826 71.3567 23.2803L71.731 23.2346C71.2836 25.7138 71.4617 29.1289 72.2698 33.4799C72.877 38.2465 73.1784 41.6433 73.1829 43.6796C73.0414 44.5882 72.8496 45.0584 72.5985 45.0904C73.0733 45.7935 73.3381 46.9075 73.4066 48.4279L73.8586 51.9982C74.2741 55.2581 75.5342 66.1792 77.6436 84.7568L78.1458 88.7016L78.2645 89.6421C78.5156 89.6101 80.5839 89.3453 84.4692 88.8522C85.7522 88.9481 87.7291 88.9481 90.3909 88.8659C93.1303 88.3911 97.3763 87.7245 103.124 86.8662C104.143 86.8662 105.722 86.7931 107.873 86.6425L111.187 87.1766C111.078 86.3 111.142 85.848 111.397 85.8115C110.699 81.3143 110.073 74.8996 109.521 66.5627C109.046 57.8377 108.548 51.4047 108.023 47.2682C107.928 46.5149 107.855 45.4465 107.804 44.0494C107.754 42.6569 107.69 41.6479 107.608 41.0179C107.147 37.3836 106.604 33.1238 105.983 28.234C105.9 27.6085 105.54 26.5082 104.896 24.933C104.248 23.3625 103.878 22.1982 103.782 21.4449C103.672 20.5683 103.764 19.7921 104.06 19.1164C104.261 18.7101 105.727 18.2078 108.453 17.6006C111.429 16.9705 113.205 16.4227 113.785 15.9661L113.79 15.9844ZM47.0948 23.3168L53.2995 22.5269L53.3451 22.9013L46.2958 24.5632C46.2638 24.3121 46.3734 24.1706 46.6245 24.1386C46.5925 23.8875 46.766 23.7368 47.1404 23.6912L47.0948 23.3168ZM51.5006 15.8839C52.1718 16.1807 52.4868 16.1396 52.4411 15.7652L53.1945 15.6693C52.4274 16.6601 51.4824 17.2262 50.3546 17.3677C50.1035 17.3997 49.962 17.2901 49.93 17.039L50.3044 16.9934L50.2587 16.619C50.4916 16.4637 50.9071 16.2218 51.5052 15.8885L51.5006 15.8839ZM53.6739 22.4813L56.3037 22.148L56.3493 22.5224L53.6693 22.4813H53.6739ZM56.9885 122.163L60.9378 121.661L61.0109 122.223C60.116 122.213 58.7783 122.191 56.9931 122.159L56.9885 122.163ZM68.0922 15.683L68.4666 15.6374C68.4985 15.8885 68.6355 15.998 68.8912 15.9661C68.672 16.2492 68.4346 16.4044 68.1881 16.4364L68.0922 15.683ZM72.4798 23.1479C72.635 23.3853 72.8816 23.8008 73.2103 24.3943L72.6442 24.4673L72.7172 25.0289L72.3428 25.0746L72.2241 24.134L71.8497 24.1797C71.9411 23.9149 72.1556 23.5679 72.4798 23.1433V23.1479ZM73.4066 15.3908L75.1005 15.1762L75.1461 15.5506C74.7718 15.5963 74.1919 15.5506 73.4066 15.3908ZM78.9402 76.9587C79.6433 77.5066 80.0314 78.0316 80.0953 78.5293L79.1548 78.648L78.9402 76.9541V76.9587ZM80.2734 84.4327C80.4606 84.9212 80.6249 85.4736 80.771 86.09C80.9126 86.7109 81.1728 86.994 81.5472 86.9484L81.5928 87.3227C80.4651 87.4643 79.8853 87.414 79.8533 87.1629L79.479 87.2086C79.3694 86.332 79.4333 85.8754 79.689 85.8435C79.7666 85.4508 79.9629 84.9806 80.2734 84.4327ZM84.7386 83.483L85.4919 83.3871C85.9302 83.8437 85.9622 84.0902 85.5878 84.1405L85.7065 85.081L84.9532 85.1769L84.7386 83.483ZM88.3637 20.3628C89.0714 20.9107 89.4549 21.4357 89.5188 21.9334L88.5783 22.0521L88.3637 20.3583V20.3628ZM108.996 6.85304L109.37 6.80282C110.452 7.30504 113.625 7.21829 118.89 6.54714C119.451 5.9673 120.657 5.43312 122.506 4.94003C123.885 4.76654 125.766 4.52455 128.144 4.22322L132.683 3.83514L132.897 5.529C132.267 5.61118 131.253 5.61118 129.843 5.53813L129.888 5.91251C129.683 6.31886 128.08 6.71607 125.072 7.09959C122.816 7.38722 118.351 7.83009 111.676 8.42362C106.005 8.88932 102.672 9.25001 101.691 9.50112C99.9514 9.85267 99.0611 9.83441 99.0108 9.46003C99.1021 9.19522 99.3852 8.90302 99.8555 8.58799C101.481 8.38253 103.942 8.19534 107.234 8.03098C107.718 7.84378 108.329 7.63833 109.064 7.41462L108.991 6.85304H108.996ZM99.5359 79.689L100.289 79.5931L99.5861 80.0633L99.5404 79.689H99.5359ZM100.632 19.1849L101.198 19.1118C101.919 19.783 102.303 20.308 102.353 20.6824C101.444 21.5636 101.056 22.5041 101.184 23.504L100.81 23.5496L100.636 19.1757L100.632 19.1849ZM101.467 25.764C101.673 26.3758 101.969 27.2296 102.367 28.3253L101.8 28.3984L101.467 25.7686V25.764ZM102.015 51.1034C102.426 52.327 102.663 53.1899 102.727 53.6875L102.353 53.7332L102.02 51.1034H102.015ZM106.444 10.8069L122.985 8.70213L123.081 9.45547C116.926 11.1311 111.379 11.5831 106.444 10.8069ZM142.599 111.849C143.745 111.831 144.348 112.073 144.412 112.575L143.85 112.648C143.298 112.338 142.882 112.073 142.604 111.854L142.599 111.849Z" fill="white"/>
<path d="M241.852 64.6497L241.898 65.0241L240.957 65.1428C240.729 61.3533 240.564 58.5728 240.469 56.8013L239.528 56.92L240.204 65.2387C228.876 66.2979 221.028 67.1699 216.659 67.8502C213.805 68.4712 211.769 68.9825 210.55 69.3934C202.921 70.4937 197.163 71.2882 193.278 71.7813C191.552 72.2561 190.26 72.6122 189.402 72.845L183.101 72.8816C183.549 76.3926 184.27 81.5883 185.274 88.4596C186.274 95.34 187 100.531 187.448 104.038L171.093 106.12L171.189 106.873L175.134 106.371L175.18 106.75L174.426 106.845C173.363 107.489 170.756 108.014 166.601 108.412C162.323 108.832 160.154 108.786 160.09 108.284C161.592 108.092 163.099 107.9 164.601 107.708C166.98 107.407 168.139 107.005 168.076 106.503C162.683 107.188 159.967 107.343 159.921 106.969L159.547 107.014C159.118 105.668 158.862 104.617 158.766 103.869L158.205 103.942L158.684 107.699L157.743 107.818L157.602 106.69C157.255 105.969 157.059 104.914 157.008 103.517C156.99 102.371 156.972 101.23 156.954 100.084C156.232 93.427 155.662 88.4048 155.228 85.0217C154.908 82.5151 154.406 79.0772 153.726 74.7033C152.68 69.4893 152.046 66.0057 151.822 64.2479L151.717 58.9152C151.575 57.7875 151.306 56.1987 150.918 54.1441C150.53 52.0941 150.219 50.6377 149.982 49.7748C149.831 46.6108 149.754 44.9672 149.735 44.8393C148.589 35.8176 147.594 29.0011 146.754 24.3943C146.539 20.7281 146.316 17.9567 146.078 16.0757L145.325 16.1716C145.142 17.7239 144.8 18.532 144.298 18.5959C144.074 15.8246 143.882 13.2998 143.718 11.0306C144.658 11.4233 145.147 11.7429 145.179 11.9894L145.553 11.9438L145.507 11.5694C146.79 10.6425 149.562 9.90748 153.822 9.36417C155.451 9.15871 158.027 8.8939 161.556 8.5743C164.829 8.28667 166.966 8.07665 167.971 7.94881C172.719 7.2183 183.384 5.99014 199.976 4.25976C205.884 3.63883 210.331 3.07269 213.321 2.56133C214.449 2.4198 217.417 2.23261 222.229 2.00432C226.005 1.65277 229.146 1.31491 231.652 0.995317C232.78 0.853781 233.369 0.96792 233.415 1.3423L233.789 1.29664C233.917 2.30109 234.981 10.1905 236.99 24.9604C238.341 34.594 239.368 42.6798 240.071 49.2087C239.916 49.9939 239.839 50.8934 239.843 51.9115C239.893 53.3086 240.108 53.9798 240.482 53.9295L240.364 52.989L240.93 52.916C240.998 56.4726 241.391 60.0521 242.103 63.6544C242.309 64.2662 242.222 64.5949 241.847 64.6406L241.852 64.6497ZM147.932 44.1179L148.493 44.0449C148.146 43.3235 147.85 42.4743 147.594 41.4836L147.927 44.1134L147.932 44.1179ZM148.105 58.9974C148.48 58.9518 148.402 58.3217 147.868 57.1164L148.105 58.9974ZM148.416 7.3781L150.909 7.44202L150.79 6.5015L149.101 6.71608C148.74 6.88958 148.512 7.10873 148.42 7.37354L148.416 7.3781ZM149.055 52.9525C149.429 52.9068 149.361 52.3407 148.84 51.2586L149.055 52.9525ZM149.197 64.5903L149.571 64.5447L149.799 61.8418C149.411 62.7823 149.21 63.7 149.192 64.5903H149.197ZM149.84 59.1572C149.589 59.1892 149.48 59.3307 149.512 59.5818L149.886 59.5362L149.959 60.0977C150.836 59.9882 150.653 58.55 149.411 55.7741L149.84 59.1572ZM154.744 108.201L155.684 108.083C155.031 102.946 154.305 99.7276 153.502 98.4264L154.744 108.201ZM156.885 110.032C157.136 110 157.41 110.156 157.707 110.503C157.661 110.128 157.908 109.589 158.456 108.877L158.83 108.832L158.784 108.453L156.716 108.717L156.885 110.032ZM157.675 116.237L160.757 116.42L187.804 112.79L187.758 112.416L157.629 115.863L157.675 116.237ZM169.806 106.48C169.413 106.403 169.171 106.499 169.075 106.763L169.03 106.389C169.527 106.325 169.792 106.357 169.806 106.48ZM210.755 30.3981C210.189 29.9644 207.445 29.9279 202.528 30.2977C197.985 30.6219 194.844 30.9597 193.104 31.3067C191.365 31.6537 190.073 32.0098 189.228 32.3705C185.311 32.6171 181.932 32.092 179.092 30.7954C179.704 31.608 179.946 32.0235 179.823 32.0418L179.869 32.4162C178.508 33.7356 178.042 36.0869 178.472 39.4701C178.645 40.8535 179.024 42.8076 179.604 45.3415C180.179 47.88 180.517 49.5237 180.613 50.277L180.987 50.2314C181.453 49.9209 182.234 49.5009 183.311 48.9804C184.393 48.4599 184.941 48.2636 184.955 48.3868L185.329 48.3412C185.69 48.1722 187.201 48.0398 189.863 47.9531C193.027 47.807 195.109 47.67 196.113 47.5422C197.492 47.3687 198.159 47.0902 198.108 46.7158C200.446 47.0582 202.615 47.0993 204.619 46.8436C205.089 46.5286 205.633 46.3323 206.263 46.2501C206.888 46.1725 207.856 46.2729 209.166 46.5469C210.472 46.8299 211.504 46.9167 212.257 46.8208L212.184 46.2592C212.837 44.3964 212.865 42.6113 212.267 40.8992C211.92 40.1778 211.573 39.461 211.226 38.7396C211.865 37.7671 212.034 36.0915 211.732 33.7082C211.632 31.9368 211.303 30.8364 210.737 30.3936L210.755 30.3981ZM180.453 106.078C180.421 105.827 179.713 105.791 178.339 105.964C179.371 106.088 180.079 106.124 180.453 106.078ZM184.982 3.49273L184.937 3.11378L180.613 3.66166C182.508 3.54752 183.964 3.49273 184.987 3.48816L184.982 3.49273ZM183.275 105.722C183.243 105.471 182.476 105.439 180.969 105.631C182.005 105.754 182.772 105.786 183.275 105.722ZM181.699 40.7804C181.731 41.0316 182.001 40.9037 182.508 40.3924C183.014 39.881 183.329 39.6208 183.457 39.6025L183.412 39.2281C182.768 39.187 182.001 39.1551 181.106 39.1368C181.325 39.8719 181.521 40.4198 181.699 40.7804ZM182.202 44.7252C182.17 44.4786 182.261 44.2093 182.48 43.9262L183.042 43.8531C182.38 43.6842 181.919 43.5518 181.654 43.4559C181.859 44.0677 182.042 44.4923 182.197 44.7252H182.202ZM184.434 33.7448L184.361 33.1832L182.672 33.3978C183.457 33.553 184.046 33.6717 184.434 33.7448ZM188.151 44.9261C188.274 44.9124 188.566 44.6841 189.018 44.2412L188.078 44.3599L188.151 44.9261ZM188.393 103.923L189.333 103.805L189.26 103.243L188.886 103.289C188.552 102.695 188.311 102.28 188.155 102.042L188.393 103.923ZM192.123 112.238L192.077 111.863L190.383 112.078L192.123 112.238ZM191.027 103.59L191.968 103.471C191.433 102.266 191 101.367 190.671 100.769L191.032 103.59H191.027ZM194.917 87.6195C195.168 87.5875 195.378 87.2451 195.552 86.5831L194.798 86.679L194.917 87.6195ZM200.432 96.4723C200.451 96.6002 200.3 96.4267 199.985 95.9564L200.432 96.4723ZM200.697 98.5406C201.072 98.4949 201.355 98.2027 201.542 97.6685L200.601 97.7872L200.697 98.5406ZM201.597 101.097C201.848 101.065 202.062 100.787 202.254 100.248L201.501 100.344L201.597 101.097ZM203.542 110.402L202.788 110.498C202.802 110.621 203.053 110.589 203.542 110.402ZM208.436 34.7036L208.81 34.6579L208.737 34.0963L209.112 34.0507C209.08 33.7996 208.756 33.2699 208.144 32.4527L207.765 32.5029C208.016 33.4891 208.24 34.2287 208.427 34.7127L208.436 34.7036ZM211.098 81.1683L211.052 80.7939C210.267 80.6386 209.554 80.5382 208.911 80.4925C209.851 80.8852 210.582 81.1089 211.098 81.1683ZM221.389 91.514L221.434 91.8884L221.996 91.8153L222.069 92.3769L223.384 92.208L223.265 91.2675C223.64 91.2218 223.461 90.7972 222.722 89.9982L221.384 91.5049L221.389 91.514ZM224.105 97.8557C224.124 97.9836 223.977 97.874 223.681 97.527C223.836 97.7644 223.977 97.874 224.105 97.8557ZM226.347 68.914C226.63 69.1332 231.346 68.6583 240.496 67.4941L240.377 66.5536C239.656 66.9006 239.053 67.1699 238.569 67.3571L229.662 67.9187C228.109 68.7542 227.009 69.083 226.347 68.914ZM237.455 7.51964L238.209 7.42376C238.409 5.99928 238.592 4.95374 238.766 4.29628C238.889 4.28259 238.93 4.08627 238.884 3.70732C238.629 1.70299 237.834 0.470263 236.501 0C236.474 1.78974 236.789 4.29628 237.455 7.51964ZM243.391 79.7392L243.765 79.6935L243.719 79.3191L244.285 79.2461C244.222 78.7439 243.655 78.3102 242.592 77.9312C242.952 78.7804 243.222 79.3785 243.395 79.7392H243.391ZM243.783 33.2654C243.532 33.2973 243.432 33.5028 243.477 33.8772C243.852 33.8315 243.897 33.1878 243.614 31.9505L243.783 33.2654Z" fill="white"/>
<path d="M226.274 33.1969C228.876 32.8956 231.515 33.0325 234.081 33.5895C242.925 35.4752 250.664 40.7896 255.604 48.364C263.397 60.5041 263.53 73.0596 260.617 86.679C270.182 93.5686 271.497 100.344 265.096 110.379C277.811 130.683 285.372 155.232 268.725 176.116C258.612 188.804 241.058 195.99 225.251 197.83C221.119 198.314 217.951 197.871 214.636 195.141C213.983 194.488 213.276 193.602 212.81 192.794C211.294 190.182 210.91 187.06 211.746 184.156C214.289 175.549 222.475 176.595 229.42 175.011C233.602 174.07 237.629 172.536 241.382 170.459C262.11 158.944 256.426 140.49 246.838 123.451C236.063 126.286 227.046 122.382 225.589 110.658C216.914 105.038 213.271 97.0476 214.905 86.7292C201.546 86.5968 195.406 72.3246 203.459 62.0884C201.944 55.7512 203.71 49.405 209.509 45.8164C210.746 45.0493 212.07 44.506 213.399 43.9216C215.184 36.8722 219.453 34.1146 226.278 33.1923L226.274 33.1969Z" fill="white"/>
<path d="M225.74 39.2099C231.328 38.7442 235.497 39.6756 240.4 42.3876C257.987 52.1124 258.836 74.8402 253.38 91.9478C252.581 94.4497 251.604 96.7782 250.792 99.2072C254.065 97.1709 255.371 95.4816 257.316 92.1167C270.017 98.1799 257.932 111.365 250.276 115.557C245.409 118.744 236.035 120.164 232.711 114.201C232.186 113.256 231.858 111.959 231.57 110.909C235.268 110.626 236.022 110.621 239.46 109.361C242.03 107.923 242.806 107.019 244.619 104.727C243.468 105.065 242.322 105.48 241.185 105.868C237.008 106.941 233.698 107.75 229.488 105.818C225.941 104.17 223.183 101.184 221.822 97.5179C220.243 93.1303 220.412 85.4417 222.37 81.2413C219.357 78.3056 217.517 76.3241 213.901 74.2148C214.303 75.7853 215.91 78.9859 215.946 79.899C214.823 80.7299 211.81 80.246 210.655 79.6342C203.624 75.9177 204.715 65.9783 212.303 63.6909C220.297 61.0474 227.881 66.7271 234.04 71.0645C232.447 66.654 230.62 64.7821 226.899 61.924C220.585 58.8102 216.184 57.9291 209.303 59.7508C208.125 53.5095 211.477 50.5144 217.22 49.3684C228.721 47.2819 234.287 53.7378 242.537 59.3535C240.167 52.9845 235.999 49.0854 230.027 45.9944C225.731 44.4695 224.32 44.1453 219.786 43.9171C221.485 40.9311 222.672 40.3787 225.74 39.219V39.2099Z" fill="#3D2046"/>
<path d="M213.901 74.2102C214.303 75.7808 215.91 78.9813 215.946 79.8944C214.823 80.7254 211.81 80.2414 210.655 79.6296C203.624 75.9132 204.715 65.9737 212.303 63.6863C211.089 66.1335 211.034 66.4029 211.134 69.0601C214.12 73.9408 222 72.804 226.374 82.159C225.913 85.7476 225.434 88.382 225.968 91.9751C226.977 98.7597 231.232 103.161 237.816 104.827C238.665 105.042 240.464 105.48 241.185 105.864C237.008 106.937 233.698 107.745 229.488 105.814C225.941 104.165 223.183 101.18 221.822 97.5133C220.243 93.1257 220.412 85.4371 222.37 81.2367C219.357 78.301 217.517 76.3195 213.901 74.2102Z" fill="#6F4287"/>
<path d="M231.566 110.909C235.264 110.626 236.017 110.621 239.455 109.361C241.432 117.137 244.705 114.557 250.271 115.557C245.404 118.744 236.031 120.164 232.707 114.201C232.182 113.256 231.853 111.959 231.566 110.909Z" fill="#6F4287"/>
<path d="M209.299 59.7462C208.121 53.5049 211.472 50.5099 217.216 49.3639C216.549 50.9984 214.645 51.9937 215.517 54.0254C216.992 57.4588 225.521 58.8239 226.895 61.9149C220.581 58.8011 216.179 57.9199 209.299 59.7416V59.7462Z" fill="#6F4287"/>
<path d="M219.786 43.9125C221.485 40.9265 222.672 40.3741 225.74 39.2144C225.416 44.7936 228.621 42.9491 230.022 45.9944C225.726 44.4695 224.315 44.1453 219.782 43.9171L219.786 43.9125Z" fill="#6F4287"/>
<path d="M46.0766 38.5981C53.3269 38.2967 58.0158 41.8991 61.052 48.2042C70.3202 50.8614 73.5984 56.3859 72.393 65.709C73.2012 66.5353 73.9956 67.348 74.6211 68.3251C79.0315 75.1781 76.945 84.7249 69.6491 88.6377C67.1745 89.9617 65.2387 90.2539 62.4901 90.6922C64.4716 101.029 61.1981 108.681 53.0438 114.995C52.5872 127.825 42.4834 131.66 31.325 128.478C24.7961 137.782 19.888 152.393 24.9741 163.286C29.4028 173.294 40.7941 177.791 51.0121 179.184C57.2305 180.033 64.5218 179.029 67.3936 186.553C68.6675 189.886 68.3205 192.757 66.8595 195.967C63.4215 202.364 57.6368 201.843 51.5736 201.345C28.8367 199.469 6.59737 187.151 1.22816 163.473C-2.80332 145.695 3.62056 130.71 12.7747 115.931C7.79814 107.818 8.37798 99.0382 16.9797 93.8243C15.4274 89.2449 14.5142 84.4738 14.2677 79.6433C13.4185 65.7911 17.66 52.5005 29.453 44.3691C34.6351 40.7987 39.808 38.9679 46.072 38.6027L46.0766 38.5981Z" fill="white"/>
<path d="M45.3826 44.748C49.373 44.1499 52.359 45.2639 54.5048 48.7886C49.6104 49.0808 46.9578 50.067 42.6615 52.4731C38.3104 55.5001 35.0597 59.8558 33.3932 64.8871C38.388 60.5589 45.6931 53.9935 52.7516 53.9706C59.3764 52.7471 67.4667 55.0892 66.2659 63.4946C59.0157 62.3304 56.2991 62.9239 49.7428 66.4531C45.9853 69.398 43.9901 71.2699 42.4149 75.831C49.8615 70.786 58.5043 64.0516 67.7315 69.6811C76.1004 77.7212 64.9967 86.7703 61.0246 84.0949L60.81 83.62C61.6638 81.7846 62.4262 80.2597 63.0106 78.3056C60.1936 79.9721 56.5594 83.0356 54.4226 85.533C55.4773 88.3455 56.2672 90.432 56.6187 93.4681C58.0386 105.791 49.4278 114.982 36.7033 110.877L34.2607 110.283L34.0781 110.471C34.877 112.151 37.4521 113.712 39.1048 114.534C40.1595 114.927 40.7759 115.137 41.8442 115.411C42.908 115.68 46.2821 115.73 46.9715 116.118C47.2591 116.872 46.9075 117.415 46.6656 118.127C44.0038 125.935 31.9322 124.008 26.6406 120.017C25.6544 119.547 24.4719 118.776 23.6136 118.104C16.5048 112.548 11.5465 105.111 20.7235 98.5406C22.8739 101.709 23.988 103.353 27.3574 105.184C20.3583 89.359 15.4228 68.3753 27.9555 53.7287C32.06 48.9302 39.0181 45.1224 45.3918 44.7572L45.3826 44.748Z" fill="#3D2046"/>
<path d="M67.7315 69.6765C76.1004 77.7166 64.9967 86.7658 61.0246 84.0903L60.81 83.6155C61.6638 81.7801 62.4262 80.2551 63.0106 78.301C60.1936 79.9675 56.5594 83.0311 54.4226 85.5285C55.4773 88.3409 56.2672 90.4274 56.6187 93.4636C58.0386 105.786 49.4278 114.977 36.7033 110.872C37.1644 110.557 37.0092 110.69 37.5525 110.562C40.5111 109.859 43.5381 109.357 45.9351 107.38C50.0031 104.033 51.7928 100.002 51.7837 94.7648C51.7791 92.3359 51.5463 89.7745 51.7745 87.373C52.1763 83.1589 56.0663 79.8077 59.7644 78.2645C61.5131 77.534 63.595 77.4564 65.1108 76.1232C67.1334 74.338 67.4895 72.1648 67.7361 69.6719L67.7315 69.6765Z" fill="#6F4287"/>
<path d="M39.1048 114.534C40.1595 114.927 40.7759 115.137 41.8442 115.411C42.908 115.68 46.282 115.73 46.9715 116.118C47.2591 116.872 46.9075 117.415 46.6656 118.127C44.0038 125.934 31.9322 124.008 26.6406 120.017C27.3894 119.908 28.4714 120.164 29.2521 120.259C33.6169 120.794 38.3378 119.579 39.1048 114.534Z" fill="#6F4287"/>
<path d="M52.7516 53.966C59.3764 52.7424 67.4667 55.0846 66.2659 63.49C59.0157 62.3258 56.2991 62.9193 49.7428 66.4485C50.6834 62.5358 63.3074 59.6959 56.573 55.2992C55.3723 54.5139 53.8702 55.0755 52.7562 53.966H52.7516Z" fill="#6F4287"/>
<path d="M45.3826 44.748C49.373 44.1499 52.359 45.2639 54.5048 48.7886C49.6104 49.0808 46.9578 50.067 42.6615 52.4731C42.8533 50.9436 43.4924 50.6925 44.6293 49.6972C46.3551 48.1814 50.7564 44.8941 45.3826 44.7526V44.748Z" fill="#6F4287"/>
</svg>
